<svg
    xmlns="http://www.w3.org/2000/svg"
    xmlns:hyvector="https://www.hyvector.com/dtd"
    width="1024"
    height="1024"
    viewBox="0 0 1024 1024"
    >
  <path
    fill-rule="evenodd"
    d="M264.63 167.23c-1.37 1 48.53-5.87 48.61-2.94 0.17 6.62 88.87 22.1 91.25 20.63 0.56-0.34 0.73 92.84 0.38 93.41-0.36 0.58-139.18 1-138.37 1.67 12.21 10.14-50.1-31.28-50.1-47.14 0-3.46 29.03-56.59 26.63-54.83M839.71 262.69c-2.94-3.97-167.71 63.51-167.71 67.25 0 3.63 115.45 79.17 120.28 82M414 453.59c-1.37 0.16-9.48 0.78-18 1.39-50.17 3.59-120.55 17.21-161 31.15-6.32 2.19-12.29 3.76-13.25 3.51-0.97-0.25-1.53-0.1-1.26 0.34 0.7 1.14-5.17 3.36-7.02 2.65-0.87-0.34-1.33-0.21-1.03 0.28 0.3 0.48-4.06 2.82-9.7 5.2-5.63 2.37-14.86 6.69-20.51 9.6-10.92 5.62-11.75 5.95-10.64 4.14 0.45-0.73 0.28-0.89-0.45-0.43-0.65 0.39-0.93 1.12-0.63 1.6 0.3 0.48-0.34 1.35-1.42 1.93-2.55 1.37-3.38 1.33-2.5-0.1 0.45-0.73 0.28-0.89-0.45-0.43-0.65 0.39-0.95 1.08-0.68 1.52 0.45 0.73-10.7 9.06-12.11 9.06-0.33 0 0.02-0.79 0.78-1.75 1.25-1.59 1.21-1.62-0.4-0.36-0.98 0.77-1.54 1.63-1.25 1.92 0.68 0.69-2.49 4.19-3.79 4.19-0.55 0-0.14-1.01 0.9-2.25l1.91-2.25-2.23 1.88c-1.22 1.04-2.02 2.21-1.78 2.61 0.25 0.4-0.65 1.75-1.99 3.01-1.34 1.26-2.16 2.75-1.82 3.3 0.35 0.56 0.18 0.73-0.37 0.39-0.55-0.33-2.49 0.93-4.31 2.81-1.82 1.88-3.67 3.21-4.09 2.94-0.69-0.42-4.34 3.81-6.32 7.31-1.66 2.93 0.37 0.91 2.85-2.84 1.49-2.25 2.91-3.89 3.16-3.64 0.25 0.25-1.1 2.76-3 5.58-4.26 6.33-7.46 14.64-8.88 23.09-1.26 7.51 0.51 27.49 2.67 30.03 0.71 0.84 2.91 4.23 4.89 7.53 6.13 10.23 19.53 23.03 33.22 31.73 20 12.72 57.2 28.84 88 38.15 30.01 9.07 82.86 20.48 116 25.03 31.15 4.28 62.51 7.32 87.5 8.47 22.81 1.05 92.46 1.07 111 0.02 73.17-4.12 124.04-11.44 184-26.47 37.03-9.28 73.9-23.68 101.12-39.52 21.05-12.24 40.36-31.3 49.43-48.77 2.59-5.01 2.78-6.16 2.76-17.5-0.02-12.03-0.85-16.03-5.85-28.05-0.62-1.5-0.49-1.74 0.62-1.09 0.84 0.49 1.08 0.45 0.59-0.09-0.46-0.5-1.22-0.91-1.68-0.91-1.11 0-7.28-8.54-6.64-9.18 0.28-0.28 1.72 1.34 3.21 3.59 2.48 3.75 4.51 5.77 2.85 2.84-1.97-3.48-5.63-7.73-6.31-7.31-0.42 0.26-3.2-2.03-6.18-5.08-4.99-5.1-15.54-13.58-22.16-17.82-1.51-0.97-2.51-2.13-2.24-2.58 0.28-0.45-0.01-1.15-0.66-1.54-0.77-0.48-0.9-0.29-0.38 0.56 0.54 0.86 0.34 1.11-0.59 0.78-0.77-0.28-1.27-1.05-1.12-1.71 0.16-0.66-0.16-0.93-0.7-0.59-1.23 0.75-21.1-9.6-20.45-10.66 0.27-0.43-0.17-0.53-0.97-0.22-0.8 0.31-3.19-0.3-5.3-1.36-3.3-1.65-21.83-8.77-27.82-10.69-1.67-0.54-1.75-0.79-0.5-1.65 1.15-0.79 1.04-0.89-0.56-0.45-1.11 0.31-5.57-0.56-9.91-1.94-4.34-1.38-13.71-4.12-20.83-6.1-12.84-3.57-12.97-3.59-16.81-1.85-2.13 0.95-3.58 2.2-3.24 2.75 0.36 0.59 0.13 0.71-0.55 0.29-1.28-0.79-10.33 2.28-9.71 3.3 0.22 0.34-0.58 0.67-1.77 0.72-1.18 0.06-6.23 0.86-11.22 1.77-10.9 2.01-18.86 1.21-28.54-2.87-3.52-1.48-7.23-2.67-8.25-2.65-1.03 0.02-1.59-0.24-1.24-0.58 0.34-0.34-0.26-1.55-1.33-2.7-1.07-1.14-2.09-2.52-2.26-3.07-0.17-0.55-0.7-0.87-1.19-0.71-1.08 0.36-4.62-2.75-4.62-4.07 0-0.53 0.79-0.35 1.75 0.39 1.46 1.13 1.43 0.98-0.13-0.85-1.04-1.22-2.22-2.01-2.62-1.76-1.23 0.76-4.25-3.28-3.44-4.59 0.45-0.73 0.33-0.96-0.29-0.58-0.58 0.36-1.58 0-2.24-0.79-0.66-0.79-3.29-1.76-5.86-2.14-3.73-0.56-4.27-0.87-2.67-1.53 1.35-0.56 0.87-0.65-1.5-0.29-1.93 0.3-9.51-0.16-16.85-1.02-7.34-0.86-13.93-1.56-14.65-1.56-0.92 0-0.46 2.03 1.59 6.89 1.59 3.79 3.24 9.3 3.66 12.23l0.77 5.34 3.99 0.25c16.4 1.04 33.27 2.68 41.38 4.05 5.29 0.88 11.51 1.58 13.84 1.55 2.33-0.03 3.98 0.35 3.68 0.84-0.31 0.5-0.19 0.81 0.27 0.7 1.73-0.41 10.73 1.48 13.22 2.78 1.43 0.75 3.53 1.36 4.67 1.36 4.56 0.02 28.17 5.29 44.73 9.98 69.92 19.83 104.26 41.67 109.74 69.78 1.6 8.19 0.91 11.76-4.25 22.11-4.69 9.42-16.95 23.68-19.51 22.69-0.76-0.29-1.14-0.13-0.84 0.35 0.79 1.29-2.15 3.4-3.55 2.53-0.71-0.44-0.94-0.32-0.56 0.3 0.83 1.35-1.91 3.65-3.31 2.78-0.59-0.36-0.95-0.06-0.8 0.67 0.16 0.73-0.5 1.26-1.46 1.18-0.96-0.07-1.51 0.24-1.22 0.7 0.72 1.18-3.34 3.18-4.72 2.33-0.67-0.42-0.85-0.25-0.45 0.41 0.85 1.36-2.99 3.55-4.55 2.59-0.68-0.42-0.85-0.25-0.44 0.42 0.87 1.41-10.98 7.56-13.04 6.77-0.92-0.36-1.19-0.14-0.73 0.6 0.48 0.78 0.16 0.95-1 0.5-1.15-0.44-1.48-0.28-1 0.5 0.48 0.78 0.16 0.95-1 0.5-0.94-0.36-1.47-0.26-1.18 0.22 0.75 1.21-5.03 3.46-6.52 2.54-0.74-0.45-0.96-0.33-0.57 0.3 0.36 0.58-0.12 1.34-1.05 1.7-51.39 19.72-102.55 31.75-166.29 39.1-63.87 7.36-141.91 8.46-206 2.88-81.28-7.07-145.92-20.39-200-41.22-15.75-6.07-22.17-9.11-21.5-10.2 0.35-0.57-0.1-0.71-1.11-0.32-1.03 0.39-1.47 0.26-1.1-0.33 0.34-0.55-0.37-0.96-1.59-0.92-1.32 0.04-2.09-0.46-1.93-1.25 0.16-0.73-0.17-1.05-0.72-0.71-1.48 0.92-7.24-2.36-6.43-3.67 0.41-0.66 0.23-0.83-0.45-0.41-1.55 0.96-5.39-1.23-4.54-2.59 0.42-0.69 0.22-0.82-0.53-0.36-1.49 0.92-9.41-4.13-8.58-5.47 0.32-0.52-0.07-0.7-0.87-0.39-1.41 0.54-3.08-1.08-3.16-3.08-0.02-0.55-0.76-0.88-1.63-0.74-2.17 0.36-13.86-12.25-13.86-14.95 0-1.16-1.23-4.63-2.74-7.71-5.19-10.6-4.07-25.01 2.75-35.3 6.86-10.35 20.55-21.48 36.08-29.32 38.64-19.51 100.72-36.75 156.41-43.44 9.35-1.12 18.7-2.27 20.77-2.55 6.15-0.84 26.61-1.99 35.49-1.99h8.25l3.54-6.72c3.05-5.82 6.4-14.68 6.44-17.03 0.01-0.7-7.45-0.8-12.99-0.16M490.07 562.09c-0.88 2.77 91.01-56.88 92.08-58.62 16.98-27.44-124.3-69.94-134.08-39.18M874 523.22c0 0.22 3.71 3.72 8.25 7.77 4.54 4.06 6.67 5.68 4.75 3.6-3.58-3.86-13-12.1-13-11.37M120.36 579.5c-0.01 4.95 0.16 7.1 0.37 4.78 0.21-2.32 0.21-6.37 0.01-9-0.21-2.63-0.38-0.73-0.39 4.22M905.31 578.5c0.01 3.3 0.19 4.53 0.42 2.73 0.22-1.8 0.21-4.5-0.01-6-0.23-1.5-0.42-0.03-0.41 3.27M903.32 601c0 3.58 0.18 5.04 0.4 3.25 0.23-1.79 0.23-4.71 0-6.5-0.22-1.79-0.4-0.33-0.4 3.25M500.78 686.73c2.35 0.22 5.95 0.21 8 0 2.04-0.22 0.12-0.39-4.28-0.39-4.4 0.01-6.08 0.18-3.72 0.39M527.25 686.73c2.06 0.21 5.44 0.21 7.5 0 2.06-0.22 0.38-0.39-3.75-0.39-4.12 0-5.81 0.17-3.75 0.39M462.73 966.72c1.77 0.22 4.92 0.23 7 0.01 2.07-0.22 0.62-0.4-3.23-0.4-3.85-0.01-5.55 0.17-3.77 0.39M481.28 967.74c2.63 0.2 6.68 0.2 9-0.01 2.32-0.21 0.17-0.38-4.78-0.37-4.95 0-6.85 0.17-4.22 0.38M540.25 967.74c2.61 0.2 6.89 0.2 9.5 0 2.61-0.21 0.48-0.38-4.75-0.38-5.23 0-7.36 0.17-4.75 0.38M553.77 931.73c1.8 0.22 6.71 2.19 8.21 1.96 1.51-0.23-4.09-6.4-7.39-6.39-3.3 0.01-2.62 4.2-0.82 4.42M530.96 928.99l-16.46 3.59 16.55 5.72c9.77 0.11 20.21-4.56 20.21-4.97 0-0.9 0.93-5.09-18.81-4.4M565.19 932.7c1.77 0.22 7.2 0.52 9.27 0.3 2.08-0.21-0.15-5.6-4-5.6-3.85-0.01-8.9-0.67-7.13-0.45M587.4 926.38l-13.05 3.45 11.15 2.08c4.95-0.27 14.29-3.5 16.21-3.97 5.08-1.24-0.64-3.18-12.7-1.62M434.62 932.42c0 0.68 19.63 0.58 37.18 1.85 12.62 0.92 45.95-0.78 45.11-1.52-0.23-0.2-12.1-2.94-23.37-3.32-25.75-0.85-35.69 0.1-36.01-0.79-0.13-0.38-2.69-0.79-5.44-0.6-2.75 0.19-5.24-3.81-5.24-4.27 0-0.47-4.3 1.4-7.32 1.4-3.03 0-3.53 2.58-3.53 2.88M641.84 916.79c-5.23 1.31-20.08 4.53-28.33 5.9-9.65 1.61-11.67 6.98-7.16 6.64 7.2-0.54 45.16-9.9 49.22-11.53 4.3-1.72-1.63-4.44-11.7-1.91M361.59 917.1c2.12 2.12 46.67 10.46 63.07 12.45 14.69 1.78 14.66-4.59-1.23-7.04-16.85-2.59-41.48-7.32-51.54-10.42-6.18-1.91-12.09-3.54-11.1-2.55M666.96 910.37c-5.14 0.97-8.96 3.79-6.82 7.17 2.41-0.02 21.56-7.55 19.42-7.62-0.83-0.02-6.39-1.26-11.34 0.33M687.33 904.15c-3.73 1.41-8.21 6.16-8 6.37 0.41 0.4 18.09-5.49 18.94-6.35 0.94-0.94-2.81-2.78-9.45-0.26M333.47 907.53c0.81 0.82 27.29 6.2 27.72 5.77 0.23-0.24-3.74-6.93-10.8-9.22-12.94-4.43-24.12-4.22-18.35-0.37"
    hyvector:transform="scale(1)"
    hyvector:d="M264.632 167.226c-1.371 1.003 48.527-5.871 48.604-2.935 0.1730000000001 6.617 88.876 22.1 91.252 20.631 0.5620000000001-0.347 0.731 92.838 0.378 93.41-0.354 0.573-139.179 0.993-138.366 1.668 12.2077420374 10.13557918235-50.1-31.27808690975-50.1-47.145 0-3.455 29.035-56.586 26.632-54.829M839.71 262.692c-2.939-3.975-167.71 63.505-167.71 67.243 0 3.632 115.448 79.175 120.28 82.006M414 453.587c-1.375 0.158-9.475 0.785-18 1.395-50.166 3.585-120.554 17.204-161 31.152-6.325 2.181-12.288 3.76-13.251 3.509-0.964-0.251-1.532-0.101-1.263 0.334 0.708 1.146-5.164 3.361-7.02 2.648-0.863-0.331-1.325-0.205-1.025 0.28 0.3 0.484-4.064 2.825-9.698 5.2-5.634 2.376-14.865 6.699-20.515 9.607-10.922 5.622-11.752 5.945-10.633 4.133 0.4460000000001-0.7209999999999 0.2740000000001-0.8819999999999-0.4569999999999-0.4299999999999-0.644 0.3979999999999-0.926 1.12-0.626 1.604 0.299 0.4839999999999-0.339 1.353-1.418 1.931-2.551 1.365-3.385 1.33-2.499-0.1050000000001 0.446-0.721 0.274-0.8820000000001-0.457-0.4300000000001-0.644 0.398-0.947 1.085-0.673 1.528 0.448 0.726-10.7 9.057-12.119 9.057-0.325 0 0.027-0.788 0.782-1.75 1.248-1.591 1.211-1.624-0.402-0.357-0.9760000000001 0.765-1.537 1.629-1.248 1.918 0.6839999999999 0.684-2.485 4.189-3.788 4.189-0.5500000000001 0-0.1430000000001-1.013 0.9049999999999-2.25l1.905-2.25-2.226 1.884c-1.225 1.036-2.026 2.208-1.781 2.604 0.2450000000001 0.3969999999999-0.6519999999999 1.752-1.993 3.012-1.341 1.26-2.158 2.745-1.815 3.3 0.343 0.5550000000001 0.176 0.7320000000001-0.372 0.393-0.5479999999999-0.338-2.489 0.9250000000001-4.313 2.807-1.824 1.882-3.666 3.206-4.093 2.942-0.6839999999999-0.422-4.337 3.803-6.318 7.308-1.656 2.929 0.3680000000001 0.914 2.853-2.842 1.489-2.25 2.911-3.888 3.16-3.64 0.248 0.249-1.101 2.759-2.998 5.578-4.266 6.338-7.46 14.645-8.88 23.094-1.262 7.508 0.511 27.493 2.665 30.034 0.712 0.8389999999999 2.912 4.226 4.889 7.526 6.129 10.227 19.537 23.034 33.222 31.732 20 12.713 57.199 28.84 88 38.15 30.009 9.071 82.859 20.474 116 25.027 31.146 4.28 62.512 7.316 87.5 8.47 22.811 1.053 92.456 1.067 111 0.0219999999999 73.169-4.124 124.041-11.441 184-26.467 37.034-9.28 73.901-23.689 101.122-39.521 21.048-12.242 40.362-31.303 49.424-48.776 2.599-5.011 2.781-6.161 2.765-17.5-0.0169999999999-12.03-0.852-16.031-5.854-28.051-0.6209999999999-1.492-0.4829999999998-1.732 0.6230000000002-1.09 0.842 0.489 1.081 0.4540000000001 0.587-0.086-0.4590000000001-0.5-1.214-0.91-1.678-0.91-1.111 0-7.283-8.54-6.638-9.185 0.275-0.274 1.718 1.343 3.207 3.593 2.485 3.756 4.509 5.771 2.853 2.842-1.967-3.481-5.632-7.732-6.306-7.315-0.42 0.2600000000001-3.204-2.022-6.185-5.071-4.991-5.104-15.537-13.589-22.161-17.828-1.508-0.9649999999999-2.513-2.124-2.234-2.576 0.279-0.4519999999999-0.019-1.147-0.663-1.545-0.774-0.478-0.9019999999999-0.288-0.377 0.5600000000001 0.532 0.862 0.336 1.118-0.596 0.78-0.764-0.278-1.265-1.045-1.114-1.704 0.1510000000001-0.66-0.165-0.9280000000001-0.703-0.595-1.227 0.758-21.101-9.6-20.447-10.658 0.263-0.426-0.176-0.524-0.976-0.217-0.8 0.307-3.186-0.305-5.302-1.36-3.3-1.647-21.823-8.767-27.819-10.695-1.666-0.535-1.744-0.791-0.5-1.645 1.157-0.796 1.039-0.8920000000001-0.553-0.451-1.114 0.309-5.575-0.565-9.913-1.942-4.339-1.377-13.713-4.122-20.831-6.1-12.842-3.569-12.971-3.584-16.809-1.853-2.127 0.9590000000001-3.585 2.201-3.24 2.759 0.362 0.586 0.129 0.707-0.551 0.287-1.283-0.7929999999999-10.334 2.282-9.706 3.297 0.211 0.342-0.5859999999999 0.668-1.77 0.724-1.185 0.056-6.235 0.853-11.223 1.772-10.897 2.007-18.866 1.204-28.546-2.876-3.512-1.481-7.224-2.672-8.249-2.649-1.025 0.024-1.583-0.236-1.241-0.578 0.3420000000001-0.343-0.255-1.556-1.326-2.697-1.072-1.141-2.089-2.524-2.259-3.074-0.1709999999999-0.55-0.7049999999999-0.869-1.186-0.708-1.086 0.362-4.625-2.752-4.625-4.069 0.0000000000001-0.533 0.7880000000001-0.3579999999999 1.75 0.3870000000001 1.456 1.128 1.434 0.9839999999999-0.1339999999999-0.8540000000001-1.036-1.215-2.213-2.005-2.616-1.756-1.225 0.757-4.254-3.28-3.443-4.591 0.4499999999999-0.73 0.335-0.96-0.289-0.575-0.573 0.354-1.579-0.004-2.236-0.796-0.658-0.792-3.295-1.755-5.86-2.139-3.735-0.561-4.267-0.865-2.668-1.526 1.35-0.559 0.864-0.652-1.504-0.29-1.925 0.295-9.505-0.165-16.845-1.023-7.34-0.8579999999999-13.934-1.56-14.653-1.56-0.924 0.0000000000001-0.457 2.025 1.588 6.892 1.592 3.79 3.241 9.294 3.664 12.23l0.7680000000001 5.338 3.989 0.252c16.404 1.033 33.267 2.68 41.384 4.043 5.283 0.888 11.509 1.588 13.836 1.556 2.326-0.032 3.981 0.347 3.675 0.841-0.3050000000001 0.493-0.1840000000001 0.809 0.27 0.702 1.732-0.412 10.734 1.478 13.221 2.775 1.432 0.747 3.536 1.361 4.676 1.365 4.553 0.013 28.17 5.282 44.728 9.977 69.922 19.83 104.26 41.664 109.741 69.781 1.597 8.191 0.9109999999999 11.761-4.25 22.109-4.695 9.414-16.956 23.674-19.512 22.693-0.761-0.292-1.14-0.1369999999999-0.843 0.3440000000001 0.798 1.291-2.151 3.397-3.548 2.534-0.711-0.4400000000001-0.937-0.318-0.5550000000001 0.3 0.831 1.344-1.914 3.646-3.315 2.78-0.5879999999999-0.3629999999999-0.9449999999999-0.0649999999999-0.7939999999999 0.6640000000001 0.1519999999999 0.732-0.5020000000001 1.263-1.464 1.187-0.957-0.075-1.507 0.2389999999999-1.222 0.6999999999999 0.726 1.174-3.336 3.181-4.714 2.329-0.6769999999999-0.419-0.8589999999999-0.256-0.4519999999999 0.403 0.846 1.368-2.992 3.558-4.548 2.597-0.683-0.4219999999999-0.859-0.255-0.441 0.4200000000001 0.867 1.403-10.987 7.554-13.04 6.766-0.9240000000001-0.3539999999999-1.189-0.136-0.7320000000001 0.6030000000001 0.4830000000001 0.7809999999999 0.157 0.944-1 0.5-1.156-0.443-1.482-0.2800000000001-1 0.5 0.4830000000001 0.7809999999999 0.157 0.944-1 0.5-0.944-0.3620000000001-1.473-0.265-1.177 0.2139999999999 0.749 1.212-5.037 3.469-6.529 2.547-0.731-0.452-0.957-0.333-0.5659999999999 0.299 0.357 0.577-0.115 1.342-1.048 1.701-51.391 19.72-102.555 31.75-166.292 39.098-63.874 7.364-141.912 8.455-206 2.88-81.281-7.07-145.915-20.392-200-41.221-15.754-6.067-22.172-9.111-21.501-10.198 0.356-0.5749999999999-0.102-0.707-1.111-0.3199999999999-1.025 0.3929999999999-1.469 0.2579999999999-1.102-0.335 0.34-0.55-0.368-0.961-1.586-0.92-1.324 0.044-2.091-0.4540000000001-1.925-1.25 0.151-0.729-0.173-1.048-0.721-0.7090000000001-1.488 0.919-7.24-2.357-6.432-3.664 0.412-0.667 0.233-0.831-0.447-0.4109999999999-1.556 0.9609999999999-5.394-1.229-4.548-2.597 0.423-0.6850000000001 0.222-0.82-0.53-0.355-1.488 0.92-9.409-4.126-8.581-5.466 0.323-0.523-0.065-0.701-0.863-0.394-1.417 0.543-3.085-1.082-3.16-3.08-0.021-0.55-0.758-0.881-1.637-0.736-2.166 0.3579999999999-13.856-12.256-13.856-14.951 0-1.162-1.234-4.634-2.742-7.713-5.188-10.598-4.064-25.01 2.753-35.304 6.855-10.348 20.552-21.479 36.076-29.317 38.647-19.513 100.722-36.751 156.413-43.437 9.35-1.123 18.696-2.273 20.768-2.556 6.153-0.8410000000001 26.611-1.986 35.49-1.986l8.257-0.0000000000001 3.531-6.72c3.057-5.817 6.409-14.678 6.443-17.03 0.01-0.7049999999999-7.453-0.7989999999999-12.989-0.1629999999999M490.072 562.087c-0.8800000000001 2.774 91.009-56.877 92.082-58.613 16.97526652137-27.44486048999-124.3060357859-69.94103330412-134.082-39.187M874 523.216c0 0.221 3.712 3.72 8.25 7.776 4.538 4.055 6.675 5.676 4.75 3.602-3.581-3.859-13-12.103-13-11.378M120.355 579.5c-0.003 4.95 0.166 7.101 0.376 4.78 0.209-2.321 0.212-6.371 0.005-9-0.206-2.629-0.378-0.73-0.381 4.22M905.31 578.5c0.0050000000001 3.3 0.192 4.529 0.4150000000001 2.732 0.222-1.797 0.218-4.497-0.01-6-0.229-1.503-0.4110000000001-0.0319999999999-0.4050000000001 3.268M903.32 601c0 3.575 0.1819999999999 5.038 0.4029999999999 3.25 0.2220000000001-1.788 0.2220000000001-4.712 0-6.5-0.221-1.788-0.4029999999999-0.325-0.4029999999999 3.25M500.776 686.733c2.352 0.2120000000001 5.952 0.2090000000001 8-0.006 2.048-0.215 0.124-0.3879999999999-4.276-0.384-4.4 0.003-6.076 0.1790000000001-3.724 0.39M527.25 686.728c2.063 0.216 5.438 0.216 7.5 0 2.063-0.2149999999999 0.375-0.3919999999999-3.75-0.3919999999999-4.125 0-5.812 0.177-3.75 0.3919999999999M462.728 966.722c1.775 0.221 4.925 0.224 7 0.008 2.074-0.217 0.622-0.397-3.228-0.402-3.85-0.004-5.548 0.173-3.772 0.394M481.28 967.736c2.629 0.207 6.679 0.2040000000001 9-0.005 2.321-0.21 0.17-0.379-4.78-0.376-4.95 0.0029999999999-6.849 0.175-4.22 0.381M540.25 967.735c2.612 0.206 6.888 0.206 9.5 0 2.612-0.206 0.475-0.375-4.75-0.375-5.225 0-7.362 0.169-4.75 0.375M553.768 931.725c1.797 0.222 6.711095744681 2.192734042553 8.214095744681 1.964734042553 1.503-0.2289999999998-4.096989361702-6.395042553191-7.396989361702-6.389042553191-3.3 0.0049999999997-2.614106382979 4.201308510638-0.817106382979 4.424308510638M530.9574468085 928.9881382979l-16.4574468085 3.5908617021 16.55319148936 5.716319148936c9.763000000002 0.115 20.20345744681-4.555191489362 20.20345744681-4.968191489362 0.0000000000002-0.8949999999995 0.9378085106384-5.086829787234-18.80319148936-4.398829787234M565.1894361702 932.6967340426c1.775000000013 0.2209999999531 7.198936170226 0.5232021276128 9.273936170226 0.3072021276128 2.074-0.217-0.1559255319153-5.603117021277-4.005925531915-5.608117021277-3.85-0.0039999999996-8.899063829788-0.6647659574464-7.123063829788-0.4437659574464M587.397606383 926.3789042553l-13.05186170215 3.450255319168 11.15425531915 2.083138297872c4.95-0.2699999999995 14.28510638298-3.506978723404 16.21010638298-3.974978723404 5.082999999999-1.238-0.6428085106397-3.181255319149-12.69680851064-1.618255319149M434.6236702128 932.4233510638c-0.000000000034 0.6800000000297 19.62453191486 0.5805851064127 37.17553191486 1.851585106413 12.623 0.9129999999997 45.94881914894-0.7832553191494 45.10981914894-1.521255319149-0.2290000000042-0.2020000000003-12.09545744681-2.946936170213-23.37045744681-3.320936170213-25.748-0.8560000000001-35.68931382979 0.0991719858155-36.00631382979-0.7878280141845-0.137-0.384-2.6875-0.7909999999999-5.4375-0.5999999999999-2.751 0.1900000000001-5.240198559671-3.814546296296-5.240198559671-4.279546296296 0.0000000000003-0.4660000000005-4.304285482882 1.400853033885-7.329285482882 1.400853033885-3.025-0.0000000000005-3.525265957447 2.583776595744-3.525265957447 2.888776595744M641.8377659574 916.7895c-5.224999999953 1.312-20.079787234 4.527287234043-28.329787234 5.900287234043-9.644999999996 1.606-11.66323404255 6.978553191489-7.162234042549 6.642553191489 7.206-0.5390000000001 45.16531914894-9.89970212766 49.22631914894-11.52970212766 4.297999999996-1.726-1.634723404259-4.438744680851-11.69972340426-1.910744680851M361.5866666667 917.0984444444c2.125999999967 2.125000000044 46.67622222219 10.46133333338 63.07622222219 12.45133333338 14.69 1.781999999998 14.65311111111-4.589111111113-1.23488888889-7.038111111113-16.846-2.596-41.48011111111-7.323-51.53911111111-10.425-6.178000000001-1.905-12.09222222222-3.533777777778-11.10222222222-2.543777777778M666.9614361702 910.3670212766c-5.139233305562 0.9686976756029-8.961020146908 3.792635218118-6.820478723391 7.171510638294 2.409-0.0220000000003 21.55889361702-7.548893617022 19.41489361702-7.613893617022-0.8249999999992-0.0249999999996-6.387765957446-1.26229787234-11.33776595745 0.3227021276599M687.3274042553 904.1498617021c-3.723999999981 1.413000000028-8.209691489343 6.156904255347-7.992691489343 6.372904255347 0.4020000000004 0.4019999999999 18.08519148936-5.496968085106 18.93819148936-6.350968085107 0.9400000000021-0.9399999999996-2.8114893617-2.77829787234-9.4494893617-0.26129787234M333.4657777778 907.5321111111c0.8149999999778 0.8160000000111 27.29744444442 6.193222222233 27.72244444442 5.769222222233 0.2360000000023-0.2369999999997-3.741999999998-6.928222222222-10.796-9.221222222222-12.94305360941-4.427252001527-24.12324490909-4.216349384552-18.34866666666-0.3702222222221"
    hyvector:nodetypes="7c3c156c3c4c4c4c4c4c4c4c4c4c4c5c4c5c9c5c5c4c4c4c"
    fill="#0e3e24"
    />
  <path
    fill-rule="evenodd"
    d="M261.6 189.17c-3.52 5.01-0.73 15.68 5.59 21.38 6.02 5.44 11.13 7.4 19.31 7.42 8.14 0.01 15.06-2.68 20.27-7.89 3.77-3.77 4.85-7.05 3.28-9.99-1.61-3-5.37-2.61-9.24 0.98-5.15 4.78-8.77 6.33-14.81 6.33-9.79 0-14.4-3.98-16.43-14.2-1.01-5.05-1.44-5.73-3.76-6.01-1.82-0.21-3.1 0.39-4.21 1.97M263.43 189.43c-1.37 1-1.87 2.53-1.79 5.46 0.17 6.62 4.27 14.9 6.65 13.43 0.56-0.35 0.72-0.15 0.36 0.44-1.03 1.66 4.06 5.1 10.17 6.88 9.75 2.83 20.11 0.28 27.06-6.68 3.76-3.75 4.28-8.42 1.04-9.27-1.45-0.38-3.22 0.49-5.86 2.88-7.5 6.77-16.26 8.27-24.1 4.13-4.77-2.52-8.96-8.95-8.96-13.73 0-3.74-2.09-5.36-4.57-3.54M347.87 210.13c-1.82 1.82-2.04 2.91-1.56 7.54 1.41 13.68 13.06 23.45 28.23 23.68 5.92 0.08 7.96-0.36 12.82-2.82 5.91-2.99 11.64-8.44 11.64-11.06 0-1.9-3.57-5.47-5.46-5.47-0.81 0-2.95 1.29-4.75 2.86-4.96 4.32-9.2 6.14-14.28 6.14-9.96 0-18.51-7.85-18.51-16.99 0-3.07-2.24-6.01-4.57-6.01-0.79 0-2.39 0.96-3.56 2.13M349.69 210.15c-2.46 1.38-2.24 9.71 0.41 15.33 5.72 12.17 21.29 17.71 35.16 12.52 9.6-3.59 15.57-12.89 8.89-13.83-2.61-0.37-7.48 3.49-6.46 5.13 0.34 0.55 0.14 0.72-0.43 0.36-0.58-0.36-3.02 0.24-5.41 1.32-2.39 1.09-5.42 1.99-6.73 2-4.79 0.04-10.65-2.52-14.74-6.45-3.52-3.38-4.39-5.03-5.4-10.22-1.26-6.42-2.42-7.76-5.29-6.16M287 238.51c-2.29 2.75-0.68 10.89 3.36 16.98 10.44 15.72 32.5 20.2 48.8 9.91 4.04-2.55 5.84-6.59 4.13-9.3-1.67-2.68-5.12-2.4-9.92 0.78-2.52 1.67-6.55 3.32-8.97 3.69-12.08 1.81-25.48-6.19-28.6-17.07-0.63-2.2-1.58-4.56-2.1-5.25-1.3-1.72-5.19-1.57-6.7 0.26M288.72 239.13c-1.03 0.58-1.72 2.17-1.72 3.95 0 3.8 2.66 10.25 3.91 9.48 1.5 3.37 2.44 4.84 4.37 6.77 5.31 5.31 11.81 8.52 20.13 9.95 5.37 0.92 7.41 0.82 12.55-0.61 11.19-3.11 17.38-8.75 13.68-12.46-1.29-1.28-2.03-1.35-4.16-0.38-1.55 0.7-2.31 1.64-1.88 2.33 0.4 0.65 0.27 0.88-0.3 0.53-0.55-0.34-2.74 0.26-4.86 1.34-6.05 3.09-14.68 2.69-22.09-1.01-3.28-1.64-6.91-4.01-8.05-5.25-2.72-2.95-6.3-9.76-6.3-11.97 0-2.35-3.07-3.9-5.28-2.67M803.66 289.75c-0.27 0.96-0.75 3.32-1.08 5.25-1.33 7.92-8.32 14-16.11 14-4.51 0-7.11-1.3-11.17-5.61-3.53-3.75-5.37-4.18-7.73-1.82-2.66 2.67-1.87 6.13 2.39 10.39 11.95 11.95 33.73 6.99 40.51-9.23 1.77-4.23 1.99-10 0.5-12.8-1.36-2.52-6.64-2.66-7.31-0.18M804.61 290.58c-0.34 0.87-0.61 2.75-0.61 4.16 0 3.82-4.62 11.01-8.29 12.91-8.01 4.15-14.86 3.4-20.51-2.25-3.79-3.79-6.71-4.37-7.47-1.48-1.4 5.35 7.35 12.24 16.37 12.89 6.74 0.49 14.51-1.77 18.98-5.53 5.61-4.72 9.4-15.64 6.99-20.15-1.34-2.5-4.59-2.82-5.46-0.55M733.04 315.93c-0.57 1.07-1.04 3.6-1.04 5.64 0 3.01-0.78 4.48-4.27 7.96-7.99 8-17.07 8.18-23.98 0.48-3.9-4.34-5.73-4.88-8.18-2.44-3.14 3.14 0.34 10.12 6.97 14.01 8.61 5.04 20.78 3.87 29.6-2.85 7.04-5.38 11.01-14.58 8.79-20.41-1.76-4.62-6.01-5.91-7.9-2.39M734.67 315.67c-0.37 0.36-0.67 1.91-0.67 3.43 0 3.13-1.08 6.24-2.99 8.98-2.01 2.9-4.95 5.37-8.51 7.02-7.34 3.4-15.32 1.77-19.59-4.01-2.94-3.97-6.91-4.29-6.91-0.56 0 3.64 2.65 7.18 7.48 10.01 3.38 1.98 5.54 2.46 11.11 2.44 7.28-0.03 15.68-2.83 15.17-5.06-0.14-0.65 0.41-1.37 1.24-1.62 1.33-0.4 1.33-0.33 0 0.61-0.83 0.58-1.02 1.07-0.44 1.07 1.5 0.03 5.9-4.87 7.83-8.68 2.06-4.1 2.09-10.68 0.04-12.73-1.7-1.7-2.72-1.94-3.76-0.9M788.11 341.36c-0.62 0.75-2.59 4.24-4.37 7.75-4.48 8.83-9.41 12.19-18.61 12.71-5.79 0.33-7.54 0-11.93-2.22-6.63-3.36-8.97-3.34-10.27 0.1-2.07 5.42 4.67 10.55 16.42 12.5 16.45 2.72 33.66-9.25 35.39-24.61 0.68-5.97-3.54-9.94-6.63-6.23M788.32 343.25c-2.37 3.75-5.23 11.09-4.66 12 0.35 0.58 0.18 0.77-0.39 0.42-0.58-0.36-1.66 0.09-2.41 1-2.3 2.78-13.07 7.33-17.36 7.33-2.38 0-6.6-1.23-10.42-3.04-7.27-3.44-9.36-3.26-8.9 0.75 0.36 3.11 5 6.69 10.7 8.27 12.48 3.47 28.81-2.27 35.01-12.3 2.35-3.8 4.35-11.89 3.49-14.12-0.71-1.87-3.94-2.06-5.06-0.31M423 451.77c-90.75 4.36-187.42 26.36-242 55.06-33.17 17.45-50.57 34.28-57.52 55.64-2.69 8.26-2.77 9.1-2.17 22.8 3.2 73.71 28.16 149.88 67.11 204.73 13.65 19.24 29.71 37.38 47.08 53.2 11.79 10.73 33.21 27.22 43 33.11 14.69 8.82 27.76 15.98 37.14 20.36l10.13 4.73 0.6 5.06c1.37 11.7 6.72 20.11 18.13 28.54 14.02 10.36 41.49 19.55 77.5 25.95 46.43 8.24 120.46 9.11 172.22 2.01 19.72-2.7 35.16-6.15 55.57-12.43 7.84-2.42 23.2-9.77 29.91-14.33 5.49-3.73 10.63-9.15 14.5-15.28 1.99-3.16 4.79-12.36 4.83-15.85 0.02-2.19 0.99-3 6.64-5.53 20.4-9.11 49.98-27.41 69.95-43.26 13.77-10.94 37.3-34.49 48.71-48.78 47.12-58.99 72.44-127.75 79.73-216.5 1.85-22.49-0.25-31.93-10.44-46.86-5.15-7.54-14.49-16.6-25.12-24.35-20.68-15.08-54.34-29.95-93.33-41.23l-18.32-5.3-12.93 2.38c-29.6 13-44.02 10.23-61.33-11.37-5.07-6.33-10.97-6.13-17.26-7.23-6.36-1.1-42.62-5.49-44.86-5.52-0.64-0.01 2.58 5.04 4.46 8.78 6.27 12.46 4.51 20.6 0.35 40.83-1.42 6.94-3.28 20.78-3.37 21.28-0.09 0.5 14.54 2.1 23.34 3.1 68.15 7.72 128.15 27.16 168.73 47.54 18.44 9.26 40.69 15.04 45.52 24.27l2 3.82-8 7.72c-9.92 9.56-20.2 16.42-37 24.69-24.76 12.19-55.47 22.42-95.5 31.81-115.17 27.04-271.83 28.43-396.49 3.52-75.4-15.07-131.87-37.43-155.88-61.74l3.4-2.63 1.05-4.13c21.02-30.16 84.12-55.38 169.68-69.2 17.2-2.78 47.47-13.18 53.85-13.18h4.11l0.57-5.5c0.69-6.75 3.61-13.28 11.43-25.57 7.59-11.93 12.65-21.95 14.79-29.31 0.92-3.17 1.52-5.85 1.33-5.94-0.19-0.1-2.82-0.06-5.84 0.08M414 453.59c-1.37 0.16-9.48 0.78-18 1.39-50.95 3.64-117.63 16.61-162.49 31.61-15.95 5.33-14.32 4.72-29.51 11.06-22.51 9.4-41.71 20.37-54.97 31.41-3.47 2.89-5.79 5.52-5.4 6.15 0.39 0.63 0.22 0.82-0.38 0.44-1.29-0.8-9.4 8.04-12.98 14.16-4 6.82-7.2 16.54-7.89 23.98-0.71 7.72 1.23 24.99 3.06 27.21 0.68 0.83 2.86 4.2 4.84 7.5 6.13 10.23 19.54 23.03 33.22 31.73 20 12.72 57.2 28.84 88 38.15 30.01 9.07 82.86 20.48 116 25.03 31.15 4.28 62.51 7.32 87.5 8.47 22.81 1.05 92.46 1.07 111 0.02 73.17-4.12 124.04-11.44 184-26.47 37.03-9.28 73.9-23.68 101.12-39.52 21.04-12.23 40.37-31.3 49.41-48.75 2.56-4.92 2.77-6.25 2.82-17.03 0.03-9.62-0.38-13-2.31-18.99-8.27-25.72-40.54-50.98-87.04-68.12-6.33-2.33-12.4-4.64-13.5-5.14-3.04-1.38-16.35-5.49-30.77-9.49-12.84-3.57-12.97-3.59-16.81-1.85-2.13 0.95-3.58 2.2-3.24 2.75 0.36 0.59 0.13 0.71-0.55 0.29-1.28-0.79-10.33 2.28-9.71 3.3 0.22 0.34-0.58 0.67-1.77 0.72-1.18 0.06-6.23 0.85-11.22 1.77-10.9 2.01-18.86 1.21-28.54-2.87-3.52-1.48-7.19-2.68-8.16-2.66-0.98 0.02-1.53-0.35-1.24-0.83 0.3-0.48-1.26-2.36-3.47-4.19-2.2-1.83-6.26-6.08-9.02-9.46-4.8-5.87-5.29-6.19-11.26-7.25-5.85-1.05-31.36-4.11-34.24-4.11-0.92 0-0.46 2.02 1.59 6.89 1.59 3.79 3.24 9.3 3.66 12.23l0.77 5.34 3.99 0.25c16.4 1.04 33.27 2.68 41.38 4.05 5.29 0.88 11.51 1.58 13.84 1.55 2.33-0.03 3.98 0.35 3.68 0.84-0.31 0.5-0.19 0.81 0.27 0.7 1.73-0.41 10.73 1.48 13.22 2.78 1.43 0.75 3.53 1.36 4.67 1.36 4.56 0.02 28.17 5.29 44.73 9.98 69.92 19.83 104.26 41.67 109.74 69.78 1.6 8.2 0.91 11.77-4.25 22.09-10.91 21.82-35.66 38.74-82.09 56.09-32.42 12.13-82.85 24.22-127.2 30.5-71.37 10.1-157.5 12.34-230.5 5.99-47.69-4.15-82.49-9.31-121.5-18.01-70.28-15.69-120.15-37.31-141.95-61.56-2.5-2.79-4.55-5.99-4.55-7.11 0-1.12-1.23-4.56-2.74-7.64-5.19-10.6-4.07-25.01 2.75-35.3 6.86-10.35 20.55-21.48 36.08-29.32 38.64-19.51 100.72-36.75 156.41-43.44 9.35-1.12 18.7-2.27 20.77-2.55 6.15-0.85 26.61-1.99 35.49-1.99h8.25l3.54-6.72c3.05-5.82 6.4-14.68 6.44-17.03 0.01-0.71-7.45-0.8-12.99-0.16M334.09 904.42c0.81 0.82 26.05 8.77 26.48 8.35 0.23-0.24-5.35-2.31-12.4-4.6-12.14-3.95-15.06-4.72-14.08-3.75M686.73 906.72c-3.73 1.42-6.6 2.75-6.38 2.96 0.4 0.41 13.66-4.36 14.51-5.21 0.94-0.94-1.49-0.26-8.13 2.25M667.5 913c-4.95 1.59-8.1 2.87-7 2.86 2.41-0.02 19.64-5.63 17.5-5.7-0.83-0.02-5.55 1.25-10.5 2.84M362.12 913.45c0.4 0.4 2.18 1.05 4.94 1.85 12.04 3.52 42.57 10.05 55.91 11.67 14.69 1.78 13.15 0.92-2.74-1.52-14.22-2.2-32.34-5.91-43.69-8.87-2.1-0.55-3.97-1.08-5.54-1.56-0.58-0.18-1.14-0.35-1.67-0.5-5.16-1.51-8.11-1.96-7.21-1.07M641 919.6c-5.23 1.31-16.25 3.51-24.5 4.88-9.64 1.61-12.5 2.32-8 1.98 7.21-0.54 39.66-6.79 43.72-8.42 4.3-1.72-1.15-0.97-11.22 1.56M436 928.06c0 0.68 17.95 2.67 35.5 3.94 12.62 0.91 43.26 1.37 42.42 0.63-0.23-0.2-9.64-0.67-20.92-1.04-25.75-0.86-35.43-1.51-35.75-2.39-0.14-0.39-2.5-0.54-5.25-0.35-2.75 0.19-5-0.04-5-0.5 0-0.47-2.47-0.85-5.5-0.85-3.02 0-5.5 0.25-5.5 0.55M586.5 928.59l-10 1.3 9-0.49c4.95-0.27 10.58-0.87 12.5-1.34 5.08-1.24 0.55-1.03-11.5 0.53M565.73 930.72c1.77 0.22 4.92 0.23 7 0.01 2.07-0.22 0.62-0.4-3.23-0.4-3.85-0.01-5.55 0.17-3.77 0.39M530 932.04l-15.5 0.54 17.75 0.21c9.76 0.12 17.75-0.13 17.75-0.54 0-0.89-0.26-0.9-20-0.21M553.77 931.73c1.8 0.22 4.5 0.21 6-0.01 1.5-0.23 0.03-0.42-3.27-0.41-3.3 0-4.53 0.19-2.73 0.41"
    hyvector:transform="scale(1)"
    hyvector:d="M261.597 189.165c-3.512 5.014-0.722 15.683 5.595 21.389 6.016 5.435 11.132 7.4 19.308 7.414 8.14 0.014 15.057-2.679 20.271-7.893 3.77-3.77 4.848-7.05 3.279-9.982-1.61-3.008-5.369-2.61-9.238 0.978-5.152 4.778-8.777 6.327-14.812 6.327-9.793 0-14.397-3.979-16.435-14.201-1.007-5.052-1.433-5.732-3.754-6.004-1.818-0.213-3.105 0.389-4.214 1.972M263.432 189.426c-1.371 1.003-1.873 2.529-1.796 5.465 0.173 6.617 4.276 14.9 6.652 13.431 0.562-0.347 0.722-0.148 0.357 0.443-1.024 1.657 4.07 5.096 10.176 6.871 9.753 2.836 20.107 0.282 27.063-6.674 3.757-3.757 4.28-8.424 1.038-9.272-1.45-0.379-3.224 0.491-5.866 2.878-7.495 6.772-16.259 8.273-24.096 4.129-4.769-2.522-8.96-8.944-8.96-13.732-0.0000000000001-3.733-2.089-5.352-4.568-3.539M347.873 210.127c-1.819 1.819-2.046 2.91-1.567 7.547 1.411 13.677 13.066 23.449 28.234 23.673 5.923 0.087 7.958-0.361 12.822-2.822 5.909-2.989 11.638-8.434 11.638-11.06 0.0000000000001-1.894-3.571-5.465-5.465-5.465-0.806 0-2.944 1.288-4.75 2.861-4.956 4.317-9.193 6.139-14.275 6.139-9.956 0-18.51-7.853-18.51-16.994 0-3.066-2.238-6.006-4.571-6.006-0.786 0-2.386 0.957-3.556 2.127M349.69 210.154c-2.457 1.374-2.236 9.707 0.406 15.328 5.721 12.17 21.29 17.713 35.168 12.52 9.593-3.589 15.568-12.889 8.888-13.834-2.615-0.371-7.481 3.491-6.467 5.132 0.343 0.555 0.15 0.716-0.429 0.358-0.58-0.358-3.012 0.238-5.405 1.324-2.393 1.086-5.424 1.984-6.735 1.996-4.79 0.044-10.644-2.518-14.737-6.451-3.516-3.378-4.387-5.024-5.403-10.215-1.257-6.42-2.413-7.766-5.286-6.158M286.996 238.505c-2.29 2.759-0.679 10.893 3.362 16.98 10.438 15.72 32.504 20.203 48.802 9.914 4.044-2.553 5.837-6.587 4.135-9.304-1.674-2.672-5.12-2.399-9.928 0.785-2.514 1.666-6.547 3.324-8.962 3.687-12.083 1.812-25.489-6.186-28.608-17.067-0.631-2.2-1.573-4.562-2.095-5.25-1.302-1.719-5.191-1.571-6.706 0.2549999999999M288.724 239.134c-1.031 0.578-1.724 2.164-1.724 3.948 0 3.802 2.66 10.246 3.91 9.474 1.497393160853 3.37028998391 2.435032636824 4.841542916468 4.366 6.773 5.312 5.311 11.812 8.523 20.138 9.949 5.367 0.92 7.411 0.821 12.546-0.607 11.189-3.111 17.385-8.754 13.68-12.46-1.286-1.285-2.031-1.354-4.159-0.384-1.552 0.707-2.308 1.643-1.883 2.332 0.402 0.651 0.274 0.8799999999999-0.296 0.528-0.553-0.342-2.743 0.2629999999999-4.866 1.345-6.047 3.083-14.678 2.687-22.086-1.015-3.283-1.641-6.908-4.003-8.054-5.25-2.712-2.948-6.296-9.761-6.296-11.967-0.0000000000001-2.346-3.073-3.898-5.276-2.666M803.655 289.75c-0.264 0.962-0.746 3.325-1.071 5.25-1.336 7.924-8.328 14-16.11 14-4.514 0-7.11-1.304-11.173-5.609-3.534-3.746-5.371-4.178-7.73-1.82-2.666 2.667-1.869 6.131 2.39 10.39 11.948 11.948 33.732 6.984 40.508-9.233 1.768-4.23 1.991-9.999 0.4960000000001-12.794-1.353-2.528-6.631-2.661-7.31-0.184M804.607 290.582c-0.3339999999999 0.87-0.607 2.743-0.607 4.162 0 3.818-4.615 11.005-8.289 12.909-8.011 4.152-14.859 3.399-20.514-2.256-3.791-3.791-6.709-4.37-7.465-1.481-1.4 5.355 7.343 12.245 16.37 12.898 6.742 0.487 14.513-1.777 18.973-5.53 5.618-4.728 9.408-15.644 6.996-20.151-1.337-2.498-4.591-2.827-5.464-0.551M733.035 315.934c-0.569 1.064-1.035 3.598-1.035 5.632 0 3.019-0.783 4.48-4.267 7.964-7.997 7.997-17.075 8.18-23.985 0.482-3.895-4.339-5.73-4.887-8.177-2.44-3.138 3.138 0.335 10.117 6.968 14.004 8.607 5.044 20.786 3.871 29.597-2.849 7.045-5.374 11.012-14.577 8.795-20.407-1.756-4.621-6.011-5.907-7.896-2.386M734.667 315.667c-0.3670000000001 0.366-0.667 1.912-0.667 3.435 0 3.130918803789-1.079313331714 6.241267999722-2.985595018347 8.979948927605-2.014148241278 2.89364862129-4.951500323208 5.372377408622-8.514404981653 7.022051072395-7.344 3.401-15.317 1.768-19.59-4.012-2.939-3.975-6.91-4.295-6.91-0.557 0 3.632 2.648 7.175 7.48 10.006 3.377 1.979 5.544 2.455 11.108 2.437 7.282-0.023 15.682-2.824 15.176-5.06-0.145-0.643 0.4109999999999-1.371 1.236-1.619 1.333-0.4009999999999 1.333-0.3329999999999 0 0.6100000000001-0.825 0.583-1.022 1.067-0.437 1.076 1.492 0.0209999999999 5.9-4.873 7.823-8.685 2.067-4.1 2.089-10.682 0.043-12.729-1.702-1.702-2.72-1.946-3.762-0.9040000000001M788.113 341.364c-0.6220000000001 0.75-2.59 4.237-4.372 7.748-4.479 8.825-9.409 12.191-18.614 12.711-5.79 0.327-7.54 0.001-11.923-2.22-6.633-3.361-8.973-3.34-10.278 0.092-2.064 5.428 4.67 10.551 16.429 12.5 16.447 2.725 33.656-9.24 35.388-24.604 0.673-5.976-3.548-9.941-6.63-6.227M788.324 343.25c-2.378 3.746-5.234 11.087-4.668 12.002 0.359 0.581 0.1840000000001 0.767-0.3879999999999 0.414-0.573-0.354-1.655 0.097-2.405 1.003-2.303 2.783-13.073 7.329-17.363 7.329-2.38 0-6.602-1.23-10.424-3.039-7.262-3.435-9.36-3.257-8.893 0.753 0.361 3.105 4.994 6.687 10.699 8.272 12.474 3.465 28.81-2.277 35.007-12.304 2.352-3.805 4.352-11.888 3.495-14.121-0.7159999999999-1.867-3.945-2.064-5.06-0.309M423 451.765c-90.754 4.365-187.422 26.362-242 55.066-33.169 17.445-50.57 34.277-57.518 55.637-2.689 8.264-2.769 9.102-2.174 22.806 3.198 73.708 28.164 149.872 67.107 204.726 13.657 19.237 29.718 37.382 47.085 53.195 11.794 10.738 33.211 27.23 43 33.111 14.685 8.821 27.756 15.989 37.136 20.363l10.135 4.727 0.596 5.069c1.374 11.691 6.719 20.103 18.128 28.531 14.026 10.362 41.495 19.559 77.505 25.951 46.433 8.242 120.461 9.109 172.217 2.017 19.723-2.702 35.163-6.158 55.569-12.436 7.847-2.415 23.208-9.77 29.915-14.325 5.49-3.728 10.632-9.149 14.495-15.281 1.99-3.158 4.794-12.362 4.831-15.854 0.023-2.192 0.9950000000001-3.001 6.643-5.525 20.398-9.117 49.978-27.413 69.948-43.266 13.777-10.936 37.299-34.491 48.71-48.777 47.118-58.992 72.441-127.746 79.736-216.5 1.849-22.488-0.256-31.932-10.443-46.86-5.148-7.544-14.493-16.603-25.121-24.352-20.677-15.077-54.338-29.947-93.325-41.226l-18.324-5.301-12.926 2.376c-29.601 13.008-44.021 10.237-61.337-11.371-5.066-6.321-10.967-6.127-17.259-7.222-6.355-1.107-42.615-5.497-44.857-5.528-0.646-0.009 2.574 5.044 4.454 8.782 6.27 12.462 4.514 20.602 0.3580000000001 40.837-1.426 6.938-3.288 20.774-3.375 21.274-0.088 0.5 14.541 2.1 23.341 3.098 68.146 7.724 128.147 27.163 168.731 47.546 18.438 9.26 40.686 15.033 45.519 24.269l2 3.822-8 7.712c-9.922 9.563-20.202 16.424-37 24.692-24.764 12.189-55.465 22.418-95.5 31.817-115.168 27.039-271.826 28.427-396.493 3.513-75.392-15.067-131.865-37.433-155.875-61.735l3.396705882353-2.631176470588 1.048705882353-4.130411764706c21.026-30.157 84.11929411765-55.37876470588 169.6872941176-69.20476470588 17.19700000005-2.779000000003 47.47029411769-13.17464705883 53.84529411769-13.17564705883l4.110000000004-0.0009999999961 0.568-5.503c0.6970000000001-6.749 3.615-13.273 11.436-25.565 7.59-11.93 12.644-21.95 14.785-29.316 0.922-3.17 1.522-5.843 1.334-5.94-0.189-0.097-2.818-0.057-5.843 0.089M414 453.587c-1.375 0.158-9.475 0.785-18 1.395-50.948 3.641-117.628 16.61-162.49 31.604-15.948 5.33-14.323 4.721-29.51 11.064-22.513 9.402-41.711 20.37-54.974 31.408-3.469 2.887-5.783 5.526-5.396 6.153 0.387 0.626 0.223 0.816-0.382 0.442-1.293-0.799-9.395 8.035-12.98 14.153-3.996 6.819-7.194 16.546-7.883 23.979-0.717 7.728 1.224 24.998 3.057 27.215 0.683 0.8249999999999 2.859 4.2 4.836 7.5 6.129 10.227 19.537 23.034 33.222 31.732 20 12.713 57.199 28.84 88 38.15 30.009 9.071 82.859 20.474 116 25.027 31.146 4.28 62.512 7.316 87.5 8.47 22.811 1.053 92.456 1.067 111 0.0219999999998 73.169-4.124 124.041-11.441 184-26.467 37.034-9.28 73.901-23.689 101.122-39.521 21.035-12.234 40.363-31.305 49.411-48.751 2.552-4.92 2.772-6.253 2.812-17.036 0.0360000000001-9.612-0.3739999999999-12.997-2.301-18.989-8.27-25.719-40.544-50.974-87.044-68.114-6.325-2.331-12.4-4.646-13.5-5.145-3.04-1.378-16.351-5.483-30.769-9.49-12.842-3.569-12.971-3.584-16.809-1.853-2.127 0.9590000000001-3.585 2.201-3.24 2.759 0.3620000000001 0.5860000000001 0.1290000000001 0.7070000000001-0.5509999999999 0.2870000000001-1.283-0.793-10.334 2.282-9.706 3.297 0.211 0.342-0.5859999999999 0.6679999999999-1.77 0.7239999999999-1.185 0.0560000000001-6.235 0.8530000000001-11.223 1.772-10.897 2.007-18.866 1.204-28.546-2.876-3.512-1.481-7.183-2.676-8.158-2.655-0.9739999999999 0.02-1.529-0.355-1.234-0.8339999999999 0.296-0.4780000000001-1.266-2.363-3.47-4.189-2.204-1.826-6.265-6.082-9.024-9.458-4.797-5.869-5.292-6.188-11.259-7.255-5.851-1.047-31.365-4.107-34.239-4.107-0.9239999999999 0-0.4569999999999 2.025 1.588 6.892 1.592 3.79 3.241 9.294 3.664 12.23l0.7680000000003 5.338 3.989 0.252c16.404 1.033 33.267 2.68 41.384 4.043 5.283 0.8879999999999 11.509 1.588 13.836 1.556 2.326-0.032 3.981 0.347 3.675 0.841-0.3050000000001 0.4929999999999-0.1840000000001 0.809 0.27 0.7019999999999 1.732-0.4119999999999 10.734 1.478 13.221 2.775 1.432 0.7470000000001 3.536 1.361 4.676 1.365 4.553 0.0130000000001 28.17 5.282 44.728 9.977 69.922 19.83 104.26 41.664 109.741 69.781 1.598 8.194 0.91 11.767-4.25 22.088-10.91 21.824-35.657 38.735-82.087 56.095-32.425 12.123-82.855 24.212-127.205 30.491-71.365 10.105-157.499 12.345-230.5 5.994-47.693-4.149-82.488-9.307-121.5-18.014-70.278-15.684-120.146-37.31-141.946-61.558-2.505-2.785-4.554-5.983-4.554-7.106 0-1.124-1.234-4.563-2.742-7.642-5.188-10.598-4.064-25.01 2.753-35.304 6.855-10.348 20.552-21.479 36.076-29.317 38.647-19.513 100.722-36.751 156.413-43.437 9.35-1.123 18.696-2.273 20.768-2.556 6.153-0.841 26.611-1.986 35.49-1.986l8.257 0.0000000000001 3.531-6.72c3.057-5.817 6.409-14.678 6.443-17.03 0.01-0.705-7.453-0.799-12.989-0.163M334.088 904.421c0.815 0.8159999999999 26.053 8.771 26.478 8.347 0.236-0.2370000000001-5.342-2.306-12.396-4.599-12.137-3.945-15.056-4.722-14.082-3.748M686.729 906.723c-3.724 1.413-6.594 2.746-6.377 2.962 0.4019999999999 0.402 13.657-4.36 14.51-5.214 0.9399999999999-0.9399999999999-1.495-0.2649999999999-8.133 2.252M667.5 913c-4.95 1.585-8.1 2.873-7 2.863 2.409-0.022 19.644-5.634 17.5-5.699-0.825-0.0250000000001-5.55 1.251-10.5 2.836M362.12 913.454c0.3956065619103 0.3954204816837 2.183241576046 1.042847905193 4.936817141773 1.847625422681 12.04421146911 3.520117888484 42.56889857569 10.0506742284 55.91718285823 11.67037457732 14.69 1.781999999999 13.142 0.9219999999991-2.746000000003-1.527000000001-14.21820657288-2.191052134822-32.3379776154-5.900131270699-43.69280752227-8.868999706635-2.098587275574-0.5487030253731-3.966097494745-1.072121912093-5.53519247773-1.556000293365-0.5797970538837-0.1787817072918-1.137698483854-0.3465187193352-1.671889122706-0.5028911501065-5.157852369508-1.509846586442-8.105200698701-1.960198671301-7.208110877294-1.063108849894M641 919.602c-5.225 1.312-16.25 3.51-24.5 4.883-9.645 1.606-12.501 2.311-8 1.975 7.206-0.539 39.66-6.788 43.721-8.418 4.298-1.726-1.156-0.9680000000001-11.221 1.56M436 928.055c0 0.6800000000001 17.949 2.675 35.5 3.946 12.623 0.913 43.256 1.371 42.417 0.633-0.229-0.202-9.642-0.673-20.917-1.047-25.748-0.856-35.432-1.503-35.749-2.39-0.137-0.384-2.5-0.5410000000001-5.25-0.35-2.751 0.1900000000001-5.001-0.035-5.001-0.5 0-0.466-2.475-0.847-5.5-0.847-3.025 0-5.5 0.25-5.5 0.555M586.5 928.593l-10 1.296 9-0.49c4.95-0.27 10.575-0.874 12.5-1.342 5.083-1.238 0.554-1.027-11.5 0.5359999999999M565.728 930.722c1.775 0.221 4.925 0.224 7 0.008 2.074-0.217 0.6220000000001-0.397-3.228-0.402-3.85-0.004-5.548 0.173-3.772 0.394M530 932.04l-15.5 0.539 17.75 0.211c9.763 0.115 17.75-0.127 17.75-0.54 0-0.895-0.259-0.898-20-0.21M553.768 931.725c1.797 0.222 4.497 0.218 6-0.01 1.503-0.229 0.0319999999999-0.4110000000001-3.268-0.4050000000001-3.3 0.0050000000001-4.529 0.192-2.732 0.4150000000001"
    hyvector:nodetypes="10c11c11c11c9c15c9c9c9c2cs12c8c11c51c66c4c4c4ccs2cscsc5c9c5c4c5c4c"
    fill="oklch(53.2% 0.157 131.589)"
    />
  <path
    fill-rule="evenodd"
    d="M464.7 148.63c-0.34 0.35-0.38 2.48-0.09 4.75 0.65 4.99-4.14 25.89-8.57 37.35-1.8 4.67-7.18 14.11-13.49 23.67-10.63 16.11-13.02 21.37-17.08 37.6-7.55 30.12-33.78 71.7-53.6 84.93-8.27 5.52-14.3 6.69-27.14 5.26-20.33-2.27-42.58-10.44-65.52-24.06-19.24-11.43-22.44-12.64-46.75-17.65-12.08-2.49-24.07-5.22-26.64-6.06-6.99-2.29-33-14.27-35.1-16.17-1.74-1.57-1.78-1.53-0.85 0.92 4.02 10.57 27.43 52.44 32.81 58.68 5.85 6.8 13.95 11.23 30.47 16.68 23.5 7.74 29.4 10.41 64.85 29.26 13.62 7.25 24.94 10.23 59.52 15.68 17.38 2.75 22.83 3.02 28.98 1.48 2.2-0.56 4.77-1.19 5.71-1.41 2.83-0.68 10.05-5.27 13.96-8.89 3.31-3.07 23.43-29.33 39.58-51.68 6.5-9 12.06-20.14 14.19-28.47 5.19-20.27 9.85-31.14 22.06-51.44 10.73-17.84 12.38-22.1 12.83-33.25 0.53-12.88-1.5-19.42-12.79-41.31-4.82-9.35-10.45-21.27-12.5-26.5-4.16-10.61-3.97-10.24-4.84-9.37M623.12 266.93c-1.16 2.71-2.82 8-3.68 11.75-1.82 7.92-5.82 20.72-10.82 34.62-4.36 12.09-5.18 19.18-3.15 27.2 2.06 8.16 10.9 25.58 21.41 42.21 10.01 15.82 13.02 21.32 20.44 37.29 5.15 11.08 10.53 19.14 20.83 31.17 4.75 5.56 6 7.66 3.69 6.23-0.72-0.44-0.88-0.27-0.43 0.46 0.4 0.65 1.1 0.94 1.55 0.67 0.97-0.6 3.23 1.89 2.82 3.11-0.15 0.47 0.1 0.93 0.56 1.01 1.83 0.33 6.65 5.81 6.41 7.29-0.14 0.88 0.35 1.43 1.14 1.26 1.5-0.32 6.3 3.69 5.65 4.73-0.22 0.35 0.36 0.69 1.28 0.75 0.93 0.06 4.6 1.39 8.18 2.96 5.99 2.64 7.69 3.86 18.75 3.82 10.64-0.03 12.6-1.35 19.25-3.84 4.13-1.54 8.47-2.87 9.65-2.96 1.19-0.09 1.9-0.57 1.59-1.08-0.31-0.51 0.2-0.63 1.15-0.26 1.15 0.44 1.48 0.28 1-0.5-0.49-0.78-0.16-0.95 1-0.5 1.15 0.44 1.48 0.28 1-0.5-0.49-0.78-0.16-0.95 1-0.5 0.94 0.36 1.46 0.25 1.15-0.26-0.74-1.19 3.09-2.41 4.61-1.47 0.68 0.42 0.89 0.28 0.51-0.33-0.57-0.93 2.34-2.24 4.73-2.13 0.49 0.02 1.16-0.34 1.5-0.8 1.23-1.68 23.12-12.35 42.61-20.76 31.94-13.79 43.22-19.65 49.31-25.64 5.17-5.09 9.01-11.34 11.76-19.13 0.74-2.11 4.3-10.74 7.89-19.17 6.35-14.9 7.49-18.63 5.66-18.63-1.55 0-3.32 2.75-2.14 3.33 0.59 0.28 0.5 0.4-0.2 0.26-0.71-0.14-4.2 1.53-7.78 3.72-6.46 3.96-23.38 12.46-32 16.08-18.94 7.95-35.07 16.69-45.33 24.55-13.03 9.99-29.81 18.19-43.9 21.46-10.39 2.41-25.76 3.66-32.18 2.61-9.34-1.52-14.58-5.79-25.14-20.51-7.77-10.83-12.11-20.54-15.6-34.92-4.58-18.84-5.15-19.94-15.66-30.54-9.43-9.5-17.29-21.08-24.13-35.54-6.25-13.19-12.97-37.11-13.24-47.12-0.1-3.51-0.27-6.38-0.38-6.38-0.1 0-1.15 2.22-2.32 4.93M609.23 444.75c-7.62 17.62-10.58 29.54-13.25 53.25-1.41 12.62-3.5 21.9-6.61 29.36-7.13 17.15-11.31 27.77-13.26 33.73-4.59 13.98-11.99 22.01-23.38 25.4-12.13 3.6-30 0.38-53.38-9.6-14.17-6.06-28.85-10-57.35-15.41-12.36-2.35-21.4-7.01-28.71-14.83-6.77-7.23-9.79-12.76-11.28-20.61-0.56-2.96-1.25-5.61-1.52-5.88-1.59-1.59 1.1 15.1 4.13 25.7 2.49 8.69 10.94 27.77 14.34 32.4 2.21 3.01 2.71 4.34 1.8 4.82-0.69 0.36-5.99 0.97-11.76 1.34-28.34 1.83-60.77 8.83-75.88 16.38-15.34 7.66-18.53 17.96-8.46 27.34 9.03 8.42 37.8 17.13 73.84 22.36 22.75 3.31 31.45 3.88 34.5 2.27 3.13-1.65 3.72-5.66 1.27-8.69-1.63-2.01-3.88-2.53-20.3-4.64-43.79-5.64-68.31-11.85-75.02-18.99-9-9.59 18.16-18.38 70.73-22.89 29.75-2.55 29.42-2.59 53.69 5.33 48.2 15.72 62.11 19.17 80.13 19.84 23.59 0.88 36.46-3.07 49.22-15.1l7.01-6.62 13.39 1.05c33.34 2.62 67.44 10.02 71.82 15.59 2.99 3.8 1.14 6.56-6.81 10.2-14.38 6.57-41.21 11.5-82.51 15.15-16.15 1.43-71.83 3.17-89.45 2.8-14.03-0.29-14.38-0.25-16.25 2.06-2.95 3.63-2.47 6.79 1.33 8.86 2.96 1.62 6.76 1.78 42.75 1.75 39.83-0.03 50.22-0.64 87-5.05 50.88-6.1 84.98-19.58 85-33.59 0.01-11.87-35.28-24.77-83.28-30.44-8.12-0.95-14.64-2-14.49-2.31 0.16-0.32 1.92-3.73 3.91-7.58 1.99-3.85 5.06-11.5 6.82-17 3.72-11.63 9.04-36.93 9.04-42.99 0-6.45 2.12-15.9 3.22-14.32 0.63 0.91 0.74 0.68 0.34-0.74-0.31-1.13 0.09-6.48 0.91-11.89 1.13-7.59 1.24-11.51 0.45-17.2-0.57-4.06-0.71-7.93-0.31-8.62 0.39-0.68 0.35-0.92-0.08-0.52-1.04 0.93-8.7-14.32-8.05-16.02 0.27-0.72 0.09-1.05-0.41-0.74-0.5 0.3-2.5-2.04-4.44-5.2-1.95-3.17-3.99-6.28-4.53-6.9-0.54-0.63-0.71-1.42-0.37-1.75 0.33-0.34 0.18-0.61-0.34-0.61-0.52 0-2.84 4.39-5.16 9.75M654.56 550.22c-1.98 2.82-2.01 7.16-0.07 8.77 0.83 0.69 4.99 1.67 9.25 2.2 16.9 2.08 45.85 7.02 55.05 9.4 24.33 6.29 44.69 14.63 49.4 20.23 6.23 7.4 13.81 6.5 13.81-1.65 0-13.86-45.35-30.71-105.24-39.1-18.75-2.63-20.26-2.62-22.2 0.15M337 558.53c-21.86 3.41-32.37 5.78-51.12 11.53-26.18 8.02-43.88 17.81-43.88 24.27 0 5.91 7.56 6.21 16.89 0.67 17.22-10.23 48.28-19.06 86.02-24.46 17.81-2.54 19.81-3.46 18.57-8.54-1.52-6.23-5.49-6.75-26.48-3.47"
    hyvector:transform="scale(1)"
    hyvector:d="M464.704 148.63c-0.347 0.346-0.389 2.484-0.094 4.75 0.65 4.989-4.144 25.886-8.569 37.352-1.802 4.668-7.183 14.111-13.486 23.665-10.634 16.117-13.023 21.374-17.088 37.603-7.546 30.122-33.781 71.695-53.593 84.925-8.275 5.526-14.3 6.694-27.144 5.26-20.333-2.269-42.578-10.438-65.519-24.06-19.239-11.424-22.436-12.631-46.75-17.646-12.079-2.491-24.066-5.219-26.639-6.061-6.996-2.29-32.997-14.266-35.097-16.167-1.74-1.575-1.782-1.53-0.8509999999999 0.918 4.018 10.567 27.422 52.437 32.803 58.684 5.852 6.794 13.955 11.227 30.471 16.672 23.5 7.747 29.401 10.41 64.852 29.267 13.621 7.245 24.945 10.229 59.517 15.682 17.379 2.741 22.834 3.018 28.983 1.473 2.2-0.552 4.77-1.187 5.711-1.411 2.834-0.673 10.054-5.27 13.962-8.89 3.305-3.062 23.422-29.33 39.574-51.676 6.506-9 12.058-20.139 14.19-28.47 5.189-20.274 9.849-31.137 22.064-51.44 10.733-17.838 12.377-22.097 12.832-33.255 0.525-12.874-1.5-19.411-12.793-41.305-4.824-9.35-10.448-21.275-12.5-26.5-4.165-10.609-3.972-10.235-4.836-9.37M623.124 266.932c-1.167 2.713-2.825 8.001-3.684 11.75-1.816 7.92-5.818 20.722-10.821 34.613-4.356 12.096-5.178 19.187-3.153 27.205 2.06 8.158 10.9 25.581 21.415 42.211 10.005 15.822 13.017 21.319 20.437 37.289 5.149 11.082 10.532 19.137 20.829 31.171 4.755 5.557 6.001 7.656 3.698 6.234-0.7209999999999-0.446-0.8819999999999-0.274-0.4299999999999 0.4570000000001 0.398 0.6439999999999 1.091 0.9429999999999 1.541 0.6649999999999 0.973-0.601 3.237 1.893 2.829 3.118-0.1569999999999 0.47 0.095 0.924 0.558 1.007 1.823 0.33 6.644 5.812 6.408 7.286-0.143 0.887 0.3480000000001 1.434 1.136 1.266 1.508-0.321 6.3 3.684 5.656 4.727-0.2179999999998 0.352 0.3580000000001 0.688 1.28 0.747 0.9230000000001 0.058 4.602 1.392 8.177 2.964 5.992 2.635 7.688 3.855 18.75 3.82 10.637-0.033 12.602-1.355 19.25-3.837 4.125-1.541 8.47-2.874 9.655-2.963 1.184-0.089 1.898-0.576 1.585-1.082-0.3139999999999-0.509 0.1980000000001-0.626 1.148-0.261 1.156 0.443 1.482 0.28 1-0.4999999999999-0.4829999999999-0.7810000000001-0.1569999999999-0.9440000000001 1-0.5000000000001 1.156 0.443 1.482 0.28 1-0.4999999999999-0.4829999999999-0.7810000000001-0.1569999999999-0.9440000000001 1-0.5000000000001 0.946 0.3630000000001 1.462 0.247 1.149-0.258-0.7339999999999-1.189 3.09-2.41 4.609-1.471 0.681 0.421 0.8950000000001 0.285 0.515-0.329-0.574-0.929 2.341-2.244 4.727-2.132 0.489 0.023 1.164-0.335 1.5-0.795 1.231-1.684 23.126-12.353 42.612-20.763 31.94-13.786 43.219-19.651 49.306-25.64 5.171-5.087 9.014-11.336 11.763-19.127 0.745-2.111 4.297-10.741 7.893-19.177 6.349-14.894 7.483-18.627 5.66-18.627-1.555 0.0000000000001-3.322 2.749-2.139 3.328 0.5870000000001 0.2870000000001 0.4930000000001 0.4050000000001-0.208 0.2620000000001-0.701-0.1420000000001-4.2 1.533-7.775 3.722-6.456 3.955-23.38 12.458-32 16.078-18.939 7.952-35.071 16.69-45.328 24.551-13.033 9.99-29.816 18.193-43.905 21.461-10.386 2.409-25.759 3.657-32.174 2.613-9.343-1.521-14.581-5.794-25.145-20.515-7.77-10.828-12.107-20.535-15.603-34.924-4.575-18.831-5.142-19.937-15.653-30.534-9.429-9.506-17.291-21.085-24.134-35.542-6.244-13.193-12.964-37.109-13.24-47.122-0.0970000000001-3.508-0.2650000000001-6.378-0.3740000000001-6.378-0.1089999999999 0-1.153 2.22-2.32 4.932M609.233 444.75c-7.618 17.616-10.584 29.539-13.249 53.25-1.418 12.619-3.507 21.897-6.612 29.362-7.13 17.147-11.309 27.772-13.266 33.732-4.589 13.976-11.987 22.011-23.381 25.395-12.125 3.601-29.994 0.3860000000001-53.373-9.603-14.168-6.053-28.851-9.998-57.352-15.407-12.363-2.346-21.399-7.013-28.707-14.825-6.77-7.237-9.797-12.766-11.285-20.613-0.562-2.964-1.244-5.61-1.515-5.881-1.588-1.589 1.093 15.095 4.131 25.702 2.487 8.685 10.933 27.771 14.337 32.4 2.213 3.009 2.707 4.333 1.796 4.815-0.691 0.365-5.982 0.9690000000001-11.757 1.343-28.341 1.835-60.768 8.835-75.879 16.38-15.343 7.66-18.531 17.965-8.46 27.344 9.034 8.414 37.798 17.125 73.839 22.361 22.752 3.305 31.446 3.876 34.5 2.266 3.132-1.651 3.717-5.664 1.267-8.69-1.63-2.012-3.879-2.527-20.3-4.642-43.79-5.639-68.302-11.844-75.013-18.988-9.007-9.587 18.157-18.379 70.724-22.891 29.749-2.553 29.422-2.586 53.694 5.332 48.197 15.722 62.106 19.166 80.128 19.839 23.59 0.8820000000003 36.459-3.068 49.218-15.104l7.014-6.616 13.384 1.052c33.343 2.622 67.445 10.021 71.82 15.583 2.99 3.801 1.148 6.563-6.804 10.2-14.383 6.579-41.212 11.507-82.515 15.157-16.151 1.427-71.825 3.169-89.449 2.798-14.025-0.2949999999998-14.373-0.2509999999999-16.25 2.06-2.945 3.625-2.47 6.786 1.332 8.863 2.961 1.618 6.764 1.773 42.75 1.745 39.831-0.0319999999997 50.225-0.6349999999998 87-5.047 50.883-6.104 84.977-19.58 84.996-33.595 0.0170000000001-11.869-35.274-24.766-83.271-30.432-8.126-0.9589999999996-14.648-2.003-14.492-2.32 0.1559999999999-0.3159999999996 1.913-3.725 3.905-7.575 1.991-3.85 5.061-11.5 6.821-17 3.72-11.627 9.041-36.926 9.041-42.989-0.0000000000001-6.447 2.122-15.899 3.217-14.326 0.6339999999999 0.9120000000005 0.7389999999999 0.6850000000005 0.3429999999998-0.7389999999995-0.313-1.129 0.0940000000001-6.478 0.9060000000001-11.886 1.139-7.589 1.242-11.514 0.451-17.204-0.5640000000001-4.054-0.7040000000001-7.93-0.311-8.614 0.393-0.6829999999999 0.3580000000001-0.92-0.079-0.526-1.036 0.936-8.7-14.317-8.049-16.018 0.275-0.716 0.0909999999999-1.05-0.407-0.742-0.499 0.308-2.499-2.031-4.445-5.198-1.947-3.167-3.982-6.273-4.522-6.901-0.5409999999999-0.629-0.7109999999999-1.417-0.377-1.75 0.333-0.3339999999999 0.182-0.607-0.336-0.607-0.5179999999999 0.0000000000001-2.839 4.387-5.158 9.75M654.557 550.223c-1.973 2.816-2.004 7.161-0.063 8.772 0.822 0.683 4.985 1.67 9.25 2.194 16.895 2.077 45.843 7.02 55.043 9.399 24.335 6.292 44.692 14.628 49.406 20.229 6.23 7.404 13.807 6.502 13.807-1.643 0-13.862-45.354-30.715-105.242-39.108-18.748-2.627-20.259-2.617-22.201 0.1569999999999M337 558.526c-21.863 3.415-32.369 5.785-51.119 11.531-26.177 8.022-43.881 17.816-43.881 24.276 0 5.905 7.565 6.203 16.889 0.6640000000001 17.217-10.229 48.278-19.059 86.02-24.453 17.812-2.546 19.81-3.465 18.57-8.544-1.522-6.231-5.493-6.752-26.479-3.474"
    hyvector:nodetypes="26c50c54c8c7c"
    fill="oklch(68.1% 0.162 75.834)"
    />
  <path
    fill-rule="evenodd"
    d="M491.5 73.41c-1.65 0.73-3.98 2.41-5.18 3.71-5.31 5.79-5.16 11.88 0.63 24.38 6.34 13.71 20.38 25.5 30.34 25.5 8.81 0 14.7-5.7 14.71-14.23 0-6.22-2.13-11.5-8.69-21.49-9.95-15.15-22.3-22.09-31.81-17.87M292.5 79.89c-17.19 5.02-36.68 19.94-48.46 37.11-2.08 3.03-6.48 10.9-9.79 17.5-3.31 6.6-6.86 12.74-7.89 13.65-1.02 0.9-6.77 4.91-12.77 8.91-6 4-14.57 10.91-19.04 15.36-11.74 11.67-16.01 19.51-23.92 43.9-3.59 11.1-7 22.2-7.56 24.68-2.32 10.21-0.6 23.56 4.4 34.1 1.41 2.97 2.31 4.52 2 3.46-0.52-1.82-0.44-1.84 1.26-0.3 2.1 1.89 28.11 13.87 35.09 16.16 2.58 0.84 14.56 3.57 26.64 6.06 24.32 5.01 27.51 6.22 46.75 17.64 22.94 13.63 45.19 21.8 65.52 24.07 12.84 1.43 18.87 0.26 27.14-5.26 19.82-13.24 46.05-54.81 53.6-84.93 4.06-16.23 6.45-21.49 17.09-37.6 6.3-9.56 11.68-19 13.48-23.67 4.47-11.59 9.22-32.36 8.56-37.44-0.3-2.31-0.13-4.46 0.37-4.77 2.6-1.61-5.14-15.41-12.67-22.6-4.4-4.21-17.44-13.92-18.68-13.92-0.29 0-2.81-1.34-5.59-2.98-33.49-19.75-110.76-36.35-135.53-29.13M645.47 137.29c-12.72 5.58-21.75 13.3-29.57 25.27-5.96 9.11-8.04 14.63-8.04 21.31 0 6.12 1.69 9.18 7.13 12.88 8.89 6.05 27.13-0.23 41.37-14.24 18.37-18.08 22.26-39.24 8.37-45.55-5.64-2.56-12.97-2.43-19.26 0.33M261.04 188.93c-1.41 2.63-1.31 10.34 0.17 13.77 6.01 13.94 23.74 20 38.02 12.99 9.05-4.45 14.66-13.21 10.52-16.41-3.12-2.41-4.85-2.19-8.52 1.11-2.05 1.83-5.17 4.07-6.93 4.97-4.18 2.14-11.9 2.09-16.28-0.11-4.25-2.14-8.02-7.53-8.02-11.46 0-4.52-1.67-6.79-5-6.79-1.87 0-3.3 0.7-3.96 1.93M734 191.46c-25.93 7.39-78.11 37.56-99.07 57.27-5.76 5.41-13.03 16.07-12.89 18.91 0.02 0.47 0.84-0.64 1.82-2.47l1.78-3.34 0.17 6.46c0.28 10.09 6.98 33.97 13.25 47.21 6.84 14.46 14.7 26.04 24.13 35.54 10.51 10.6 11.08 11.7 15.65 30.54 3.5 14.38 7.84 24.09 15.61 34.92 10.56 14.72 15.8 18.99 25.14 20.51 6.42 1.05 21.79-0.2 32.18-2.61 14.09-3.27 30.87-11.47 43.9-21.46 10.26-7.86 26.39-16.6 45.33-24.55 8.62-3.62 25.54-12.12 32-16.08 3.58-2.19 7.07-3.86 7.77-3.72 0.71 0.14 0.8 0.02 0.21-0.26-0.74-0.36-0.71-0.96 0.1-1.93 2.01-2.43 3.21-1.59 2.53 1.78-0.96 4.84 0.12 2.93 3-5.27 3.57-10.14 4.38-25.73 1.88-35.94-3.15-12.87-13.72-31.3-34.38-59.97-5.75-7.98-14.95-20.75-20.46-28.38-7.79-10.83-11.45-14.96-16.57-18.76-11.36-8.42-37.15-20.66-57.53-27.31-8.72-2.85-17.99-3.24-25.55-1.09M347.66 209.83c-2.36 2.6-2.15 10.53 0.42 15.83 3.05 6.3 10.99 13.01 17.71 14.97 10.5 3.05 22.37 0.14 29.82-7.31 3.78-3.78 4.33-7.16 1.56-9.67-2.67-2.41-4.62-2.06-9.62 1.76-6.22 4.74-12.14 6.33-17.89 4.77-1.98-0.53-3.94-1.44-5.88-2.72-4.32-2.84-6.45-6.49-7.39-12.61-0.36-2.39-1.11-4.91-1.65-5.6-1.44-1.83-5.18-1.53-7.09 0.58M495.34 223.5c0.01 4.4 0.18 6.08 0.39 3.72 0.22-2.35 0.21-5.95 0-8-0.22-2.04-0.39-0.12-0.39 4.28M287.56 238.13c-4.94 3.89-1.97 13.54 6.9 22.41 11.53 11.52 28.1 14.18 41.82 6.71 2.79-1.51 5.99-4.01 7.12-5.55 1.9-2.57 1.94-3 0.55-5.49-2.13-3.79-4.29-3.84-9.9-0.24-4.29 2.75-8.92 4.15-13.66 4.17-2.09 0.01-4.2-0.26-6.31-0.8-9.33-2.39-14.89-7.49-17.95-16.47-2.14-6.3-4.75-7.74-8.57-4.74M804.17 288.3c-0.6 0.71-1.39 3.21-1.76 5.55-0.96 5.98-4.13 10.26-9.63 12.99-6.57 3.26-11.62 2.36-16.61-2.94-5.31-5.64-10.17-4.96-10.17 1.43 0 2.12 1.18 4.12 4.25 7.19 6.67 6.66 15.07 8.14 25.47 4.49 10.05-3.54 16.21-11.72 16.26-21.61 0.01-3.68-0.49-5.55-1.81-6.75-2.2-1.98-4.53-2.12-6-0.35M733.2 315.2c-0.66 0.66-1.2 2.47-1.2 4.03 0 2.29-0.61 4.52-1.69 6.54-2.84 5.33-8.93 9.23-15.55 9.23-4.36 0-5.32-0.45-9.66-4.5-6.58-6.16-11.1-5.82-11.1 0.83 0 3.95 7.07 11.04 12.5 12.55 9.76 2.71 19.54 0.48 27.09-6.17 7.5-6.6 10.56-16.19 6.85-21.49-1.69-2.41-5.33-2.93-7.24-1.02M787.25 341.25c-0.55 0.69-1.61 2.98-2.36 5.1-1.91 5.39-7.09 11.08-12.45 13.68-6.22 3.01-14.59 2.46-20.33-1.34-4.8-3.17-6.23-3.32-8.45-0.86-2.67 2.94-1.98 5.74 2.31 9.41 10 8.57 28.72 7.24 39.91-2.82 2.69-2.42 5.84-6.42 7.01-8.9 2.32-4.94 2.8-12.44 0.91-14.32-1.57-1.57-5.29-1.54-6.55 0.05M487.5 390c-19.39 2.33-31.7 10.95-45.72 32.04-6.26 9.41-8.5 14.78-12.26 29.46-3.05 11.89-7.02 20.6-15.52 34.05-8.3 13.13-11.75 20.57-12.56 27.09-0.41 3.25-1.16 5.36-1.92 5.36-3.48 0-33.82 3.33-46.43 5.1-76.7 10.74-149.15 36.38-177.39 62.78-5.6 5.24-11.7 13.25-11.7 15.37 0 1.8 7.43 8.86 15.85 15.06 42.75 31.47 138.4 57.17 246.15 66.14 58.08 4.84 125.78 4.84 181 0.02 87.45-7.65 167.73-27.1 214.91-52.07 16.35-8.65 34.97-22.57 38.15-28.51 1.36-2.54-2.68-8.44-11.36-16.56-16.99-15.88-43.37-29.03-82.7-41.2-41.96-12.98-81.68-20.81-130.25-25.69-3.71-0.37-6.75-0.99-6.75-1.38 0-0.39 1.4-7.43 3.11-15.64 2.54-12.24 2.99-16.27 2.49-22.42-0.7-8.64-3.66-18.34-7.17-23.51-1.34-1.97-2.43-3.86-2.43-4.21 0-0.84-8.11-13.28-8.65-13.28-0.59 0 1.47 3.78 4.62 8.5 1.47 2.2 4.52 7.83 6.79 12.5 6.85 14.12 7.28 25.88 1.81 49-0.85 3.58-1.55 8.57-1.55 11.09-0.03 6.46-5.25 31.5-9.06 43.41-1.76 5.5-4.83 13.15-6.82 17-1.99 3.85-3.75 7.26-3.91 7.58-0.15 0.31 6.37 1.36 14.5 2.32 47.99 5.66 83.28 18.56 83.27 30.43-0.02 14.01-34.12 27.49-85 33.59-36.77 4.41-47.17 5.02-87 5.05-35.99 0.03-39.79-0.13-42.75-1.75-3.8-2.07-4.28-5.23-1.33-8.86 1.88-2.31 2.22-2.35 16.25-2.06 17.62 0.37 73.3-1.37 89.45-2.8 41.3-3.65 68.13-8.58 82.51-15.15 7.95-3.64 9.8-6.4 6.81-10.2-4.38-5.57-38.48-12.97-71.82-15.59l-13.39-1.05-7.01 6.62c-12.76 12.03-25.63 15.98-49.22 15.1-18.02-0.67-31.93-4.12-80.13-19.84-24.27-7.92-23.94-7.88-53.69-5.33-52.57 4.51-79.73 13.3-70.73 22.89 6.72 7.15 31.23 13.35 75.02 18.99 16.42 2.11 18.67 2.63 20.3 4.64 2.45 3.03 1.86 7.04-1.27 8.69-6.2 3.27-58.19-4.77-84-12.99-21.26-6.76-30-13.62-30-23.55 0-10.59 17.77-20.03 49.38-26.22 14.8-2.91 28.71-4.82 40.62-5.59 5.78-0.37 11.07-0.98 11.76-1.34 0.91-0.48 0.41-1.81-1.8-4.82-3.4-4.63-11.85-23.71-14.34-32.4-3.03-10.6-5.71-27.29-4.13-25.7 0.27 0.27 0.96 2.92 1.52 5.88 1.49 7.85 4.51 13.38 11.28 20.61 7.31 7.82 16.35 12.48 28.71 14.83 28.5 5.41 43.18 9.35 57.35 15.41 43.53 18.59 67.05 13.76 76.76-15.8 1.95-5.96 6.13-16.58 13.26-33.73 3.11-7.46 5.2-16.74 6.61-29.36 2.69-23.9 6-36.96 13.88-54.75l4.1-9.25-3.57-6.5c-8.98-16.33-30.31-27.96-61.39-33.47-24.31-4.31-46.9-5.79-61.5-4.03M173.5 397.94c-4.99 1.21-9.22 3.85-11.67 7.3-3.49 4.89-3.31 15.27 0.38 22.76 7.35 14.88 24.16 28.12 41.25 32.48 11.33 2.89 19.34 1.11 24.93-5.54 2.58-3.06 2.78-3.88 2.44-9.95-1.03-18.19-22.23-40.54-43.8-46.17-7.13-1.86-9.01-1.99-13.53-0.88M378.5 402l-6 0.66 5.5 0.07c3.02 0.04 6.63-0.29 8-0.73 3.03-0.97 1.28-0.97-7.5 0M865.96 411.08c-1.3 2.79-4.87 7.59-7.92 10.66-4.61 4.66-4.85 5.06-1.45 2.39 2.25-1.77 5-4.44 6.12-5.95 2.58-3.49 6.55-11.25 6.03-11.77-0.22-0.22-1.47 1.88-2.78 4.67M647 421.37c0 1.21 4.92 10.46 5.88 11.06 0.51 0.31-0.45-2.02-2.14-5.18-3.37-6.33-3.74-6.91-3.74-5.88M658.68 440.75c7.99 10.79 21.82 27.44 26.13 31.48 15.43 14.42 39.51 16.11 62.98 4.41 3.69-1.84 8.86-4.15 11.49-5.14 2.63-0.99 5-2.15 5.27-2.58 0.56-0.91-7.96 2.42-18.05 7.05-24.07 11.04-47.14 8.95-61.92-5.62-4.88-4.81-6.21-6.39-20.44-24.16-7.35-9.17-10.72-12.54-5.46-5.44M784.75 458.06c-4.26 2.18-7.75 4.19-7.75 4.46 0 0.45 15.9-7.2 16.92-8.14 1.41-1.3-2.47 0.26-9.17 3.68M455.87 469.65c-2.4 2.9-1.67 9.52 1.64 14.87 4.24 6.87 10.51 9.99 19.96 9.95 7.78-0.03 11.84-1.62 17.26-6.76 4.51-4.27 5.96-9 3.8-12.31-2.33-3.55-5.38-2.77-8.73 2.23-3.6 5.37-8.59 7.78-14.34 6.92-4.63-0.7-9.03-3.52-9.84-6.33-0.28-0.94-1-3.63-1.6-5.97-0.97-3.74-1.44-4.25-3.94-4.25-1.56 0-3.45 0.74-4.21 1.65M530.66 482.83c-2.01 2.22-2.15 8.07-0.3 12.45 4.74 11.21 20.36 16.18 32.19 10.24 5.62-2.82 9.45-7.74 9.45-12.13 0-6.65-4.38-7.08-9.42-0.92-4.51 5.5-9.5 7.37-14.92 5.58-4.53-1.49-8.38-6.01-9.25-10.83-1.14-6.32-4.36-8.14-7.76-4.39M479.04 511.93c-2.41 4.51-0.27 10.7 6.09 17.59 5.08 5.52 9.97 8.2 17.46 9.58 12.32 2.28 30.41-5.51 30.41-13.09 0-5.65-4.12-6.47-10.34-2.05-8.47 6.02-18.49 6.43-26.89 1.11-4.12-2.61-6.86-6.62-9.12-13.32-0.83-2.48-6.26-2.35-7.61 0.18M654.56 550.22c-1.98 2.82-2.01 7.16-0.07 8.77 0.83 0.69 4.99 1.67 9.25 2.2 16.9 2.08 45.85 7.02 55.05 9.4 24.33 6.29 44.69 14.63 49.4 20.23 6.23 7.4 13.81 6.5 13.81-1.65 0-13.86-45.35-30.71-105.24-39.1-18.75-2.63-20.26-2.62-22.2 0.15M337 558.53c-21.86 3.41-32.37 5.78-51.12 11.53-26.18 8.02-43.88 17.81-43.88 24.27 0 5.91 7.56 6.21 16.89 0.67 17.22-10.23 48.28-19.06 86.02-24.46 17.81-2.54 19.81-3.46 18.57-8.54-1.52-6.23-5.49-6.75-26.48-3.47"
    hyvector:transform="scale(1)"
    hyvector:d="M491.5 73.412c-1.65 0.733-3.983 2.403-5.183 3.711-5.312 5.783-5.154 11.88 0.632 24.377 6.345 13.705 20.382 25.5 30.346 25.5 8.806 0 14.695-5.699 14.701-14.23 0.005-6.216-2.13-11.498-8.686-21.487-9.946-15.155-22.303-22.097-31.81-17.871M292.5 79.893c-17.191 5.017-36.681 19.941-48.46 37.107-2.076 3.025-6.483 10.9-9.794 17.5-3.311 6.6-6.858 12.74-7.883 13.645-1.025 0.905-6.774 4.917-12.775 8.916-6.002 3.998-14.57 10.908-19.041 15.355-11.739 11.677-16.01 19.519-23.915 43.909-3.596 11.096-6.998 22.2-7.561 24.675-2.321 10.215-0.599 23.565 4.397 34.098 1.41 2.971 2.311 4.527 2.004 3.458-0.5229999999999-1.821-0.443-1.839 1.262-0.296 2.093 1.893 28.107 13.873 35.088 16.158 2.573 0.8419999999999 14.56 3.57 26.639 6.061 24.314 5.015 27.511 6.222 46.75 17.646 22.941 13.622 45.186 21.791 65.519 24.06 12.844 1.434 18.869 0.266 27.144-5.26 19.812-13.23 46.047-54.803 53.593-84.925 4.065-16.229 6.454-21.486 17.088-37.603 6.303-9.554 11.684-18.997 13.486-23.665 4.472-11.587 9.22-32.36 8.558-37.438-0.302-2.314-0.134-4.463 0.373-4.776 2.597-1.606-5.141-15.407-12.673-22.603-4.397-4.2-17.441-13.915-18.684-13.915-0.29 0-2.801-1.341-5.581-2.98-33.495-19.749-110.764-36.355-135.534-29.127M645.466 137.29c-12.714 5.582-21.747 13.3-29.569 25.267-5.954 9.109-8.04 14.638-8.04 21.308-0.0000000000001 6.123 1.694 9.184 7.133 12.885 8.891 6.051 27.131-0.228 41.372-14.243 18.369-18.079 22.257-39.238 8.367-45.543-5.639-2.56-12.971-2.436-19.263 0.326M261.035 188.934c-1.403 2.623-1.308 10.34 0.171 13.769 6.012 13.942 23.742 19.996 38.024 12.983 9.047-4.443 14.664-13.202 10.52-16.408-3.116-2.412-4.846-2.187-8.522 1.109-2.051 1.837-5.168 4.077-6.928 4.977-4.182 2.138-11.904 2.083-16.28-0.116-4.249-2.134-8.02-7.524-8.02-11.462 0-4.52-1.669-6.786-5-6.786-1.873 0-3.303 0.698-3.965 1.934M734 191.462c-25.927 7.393-78.115 37.559-99.074 57.267-5.759 5.415-13.022 16.076-12.884 18.911 0.023 0.473 0.841-0.64 1.819-2.473l1.776-3.333 0.1780000000001 6.461c0.2779999999999 10.09 6.976 33.964 13.243 47.205 6.843 14.457 14.705 26.036 24.134 35.542 10.511 10.597 11.078 11.703 15.653 30.534 3.496 14.389 7.833 24.096 15.603 34.924 10.564 14.721 15.802 18.994 25.145 20.515 6.415 1.044 21.788-0.2039999999999 32.174-2.613 14.089-3.268 30.872-11.471 43.905-21.461 10.257-7.861 26.389-16.599 45.328-24.551 8.62-3.62 25.544-12.123 32-16.078 3.575-2.189 7.074-3.864 7.775-3.722 0.701 0.1430000000001 0.7950000000001 0.0250000000001 0.208-0.2619999999999-0.7389999999999-0.362-0.7089999999999-0.954 0.0980000000001-1.925 2.014-2.428 3.207-1.593 2.534 1.774-0.9690000000001 4.841 0.116 2.937 2.999-5.265 3.564-10.139 4.38-25.736 1.88-35.938-3.155-12.873-13.724-31.306-34.386-59.974-5.748-7.975-14.952-20.747-20.454-28.383-7.799-10.825-11.451-14.956-16.578-18.756-11.358-8.416-37.145-20.66-57.528-27.314-8.72-2.846-17.991-3.24-25.548-1.085M347.655 209.829c-2.356 2.603-2.144 10.529 0.424 15.833 3.051 6.303 10.991 13.012 17.713 14.966 10.496 3.051 22.37 0.143 29.816-7.303 3.783-3.783 4.33-7.166 1.563-9.67-2.67-2.416-4.622-2.06-9.618 1.753-6.218341203639 4.746359525707-12.14372269119 6.334956667448-17.89730904273 4.77568241135-1.977891542486-0.5360266058636-3.935481098249-1.444054682844-5.87769095727-2.72368241135-4.316-2.843-6.452-6.487-7.386-12.605-0.3659999999999-2.395-1.109-4.917-1.651-5.605-1.444-1.83-5.182-1.525-7.086 0.579M495.343 223.5c0.003 4.4 0.179 6.076 0.39 3.724 0.212-2.352 0.209-5.952-0.006-8-0.215-2.048-0.388-0.124-0.384 4.276M287.564 238.128c-4.945 3.89-1.975 13.538 6.897 22.411 11.525 11.524 28.094 14.185 41.82 6.716 2.784-1.515 5.989-4.013 7.12-5.551 1.897-2.577 1.94-3.006 0.544-5.493-2.126-3.787-4.288-3.841-9.891-0.246-4.291603736648 2.754230008809-8.928783687342 4.159846435788-13.66344490964 4.174442742995-2.089970341657 0.0064430901656-4.198934997312-0.2581553489177-6.30555509036-0.797442742995-9.338-2.389-14.898-7.492-17.952-16.475-2.139-6.295-4.753-7.74-8.569-4.739M804.166 288.3c-0.5930000000001 0.714-1.384 3.214-1.759 5.554-0.955 5.977-4.131 10.259-9.63 12.989-6.563 3.256-11.621 2.36-16.611-2.943-5.306-5.64-10.166-4.955-10.166 1.432 0 2.116 1.183 4.115 4.253 7.184 6.664 6.664 15.069 8.146 25.467 4.491 10.054-3.534 16.215-11.72 16.258-21.602 0.016-3.686-0.484-5.553-1.807-6.75-2.196-1.988-4.535-2.126-6.005-0.355M733.2 315.2c-0.6600000000001 0.66-1.2 2.474-1.2 4.032 0 2.292748289246-0.6118934683263 4.515496931228-1.688653566651 6.533752726787-2.843772017204 5.330304646228-8.93004428145 9.234247273213-15.55034643335 9.234247273213-4.364999999999 0.0000000000001-5.324999999999-0.4469999999999-9.657999999999-4.5-6.581-6.156-11.103-5.817-11.103 0.8320000000001 0 3.946 7.067 11.038 12.503 12.547 9.753 2.708 19.534 0.4809999999999 27.085-6.165 7.505-6.606 10.564-16.197 6.855-21.491-1.693-2.418-5.334-2.932-7.243-1.023M787.249 341.25c-0.547 0.688-1.608 2.98-2.357 5.095-1.911 5.394-7.094 11.09-12.45 13.683-6.226 3.014-14.588 2.465-20.33-1.335-4.799-3.176-6.233-3.322-8.457-0.864-2.663 2.943-1.975 5.742 2.317 9.415 10.002 8.562 28.714 7.239 39.903-2.822 2.692-2.42 5.846-6.425 7.01-8.9 2.321-4.939 2.8-12.437 0.915-14.322-1.566-1.566-5.286-1.538-6.551 0.0499999999999M487.5 389.995c-19.387 2.332-31.697 10.96-45.718 32.042-6.263 9.418-8.498 14.788-12.263 29.463-3.051 11.893-7.019 20.599-15.518 34.048-8.299 13.133-11.747 20.568-12.562 27.09-0.4059999999999 3.252-1.159 5.362-1.914 5.362-3.486 0-33.821 3.329-46.436 5.096-76.696 10.743-149.147 36.385-177.388 62.783-5.603 5.238-11.701 13.247-11.701 15.368 0 1.803 7.43 8.865 15.845 15.06 42.752 31.472 138.402 57.175 246.155 66.147 58.077 4.835 125.778 4.84 181 0.0119999999999 87.45-7.645 167.727-27.095 214.912-52.068 16.343-8.65 34.969-22.57 38.148-28.509 1.361-2.544-2.683-8.436-11.365-16.558-16.983-15.886-43.366-29.03-82.695-41.198-41.959-12.982-81.684-20.817-130.25-25.689-3.712-0.3720000000001-6.75-0.9970000000001-6.75-1.388 0-0.3910000000001 1.397-7.426 3.105-15.633 2.547-12.243 2.995-16.27 2.495-22.423-0.703-8.638-3.66-18.336-7.169-23.506-1.337-1.971-2.431-3.869-2.431-4.219 0-0.833-8.109-13.275-8.653-13.275-0.586-0.0000000000001 1.47 3.782 4.62 8.5 1.469 2.2 4.527 7.825 6.795 12.5 6.849 14.115 7.283 25.883 1.807 49-0.847 3.575-1.546 8.567-1.554 11.094-0.021 6.457-5.245 31.494-9.056 43.406-1.76 5.5-4.83 13.15-6.821 17-1.992 3.85-3.749 7.259-3.905 7.575-0.1559999999999 0.317 6.366 1.361 14.492 2.32 47.997 5.666 83.288 18.563 83.271 30.432-0.0189999999999 14.015-34.113 27.491-84.996 33.595-36.775 4.412-47.169 5.015-87 5.047-35.986 0.0279999999998-39.789-0.1270000000002-42.75-1.745-3.802-2.077-4.277-5.238-1.332-8.863 1.877-2.311 2.225-2.355 16.25-2.06 17.624 0.3709999999999 73.298-1.371 89.449-2.798 41.303-3.65 68.132-8.578 82.515-15.157 7.952-3.637 9.794-6.399 6.804-10.2-4.375-5.562-38.477-12.961-71.82-15.583l-13.384-1.052-7.014 6.616c-12.759 12.036-25.628 15.986-49.218 15.104-18.022-0.6730000000001-31.931-4.117-80.128-19.839-24.272-7.918-23.945-7.885-53.694-5.332-52.567 4.512-79.731 13.304-70.724 22.891 6.711 7.144 31.223 13.349 75.013 18.988 16.421 2.115 18.67 2.63 20.3 4.642 2.45 3.026 1.865 7.039-1.267 8.69-6.2 3.269-58.192-4.77-84-12.986-21.262-6.77-30-13.63-30-23.555 0.0000000000002-10.589 17.772-20.027 49.377-26.224 14.803-2.902 28.716-4.815 40.623-5.586 5.775-0.3740000000001 11.066-0.9780000000002 11.757-1.343 0.9110000000002-0.4820000000002 0.4170000000002-1.806-1.796-4.815-3.404-4.629-11.85-23.715-14.337-32.4-3.038-10.607-5.719-27.291-4.131-25.702 0.2710000000002 0.2709999999998 0.9530000000002 2.917 1.515 5.881 1.488 7.847 4.515 13.376 11.285 20.613 7.308 7.812 16.344 12.479 28.707 14.825 28.501 5.409 43.184 9.354 57.352 15.407 43.531 18.598 67.051 13.759 76.754-15.792 1.957-5.96 6.136-16.585 13.266-33.732 3.105-7.465 5.194-16.743 6.612-29.362 2.686-23.904 5.996-36.962 13.878-54.751l4.099-9.251-3.571-6.497c-8.978-16.333-30.313-27.966-61.39-33.473-24.312-4.308-46.898-5.789-61.5-4.033M173.5 397.935c-4.992 1.215-9.215 3.857-11.671 7.3-3.489 4.892-3.313 15.272 0.386 22.765 7.348 14.882 24.153 28.115 41.245 32.478 11.329 2.893 19.339 1.115 24.933-5.533 2.577-3.063 2.779-3.889 2.436-9.959-1.027-18.182-22.231-40.534-43.794-46.164-7.134-1.863-9.018-1.987-13.535-0.887M378.5 402l-6 0.664 5.5 0.068c3.025 0.038 6.625-0.292 8-0.732 3.034-0.9719999999999 1.283-0.9719999999999-7.5 0.0000000000001M865.964 411.077c-1.307 2.79-4.87 7.59-7.92 10.667-4.609 4.652-4.854 5.054-1.452 2.385 2.25-1.765 5.003-4.442 6.117-5.95 2.583-3.493 6.555-11.248 6.03-11.773-0.22-0.22-1.469 1.882-2.775 4.671M647 421.367c0 1.216 4.92 10.466 5.884 11.062 0.508 0.313-0.456-2.017-2.141-5.18-3.374-6.33-3.743-6.91-3.743-5.882M658.677 440.75c7.997 10.791 21.824 27.445 26.136 31.479 15.424 14.426 39.505 16.113 62.978 4.41 3.69-1.84 8.861-4.153 11.492-5.14 2.63-0.988 5-2.149 5.267-2.58 0.561-0.908-7.958 2.418-18.05 7.047-24.072 11.042-47.145 8.95-61.919-5.616-4.877-4.809-6.211-6.385-20.44-24.158-7.346-9.176-10.724-12.541-5.464-5.442M784.75 458.062c-4.263 2.179-7.75 4.187-7.75 4.461 0 0.447 15.9-7.203 16.917-8.139 1.417-1.305-2.47 0.255-9.167 3.678M455.872 469.654c-2.404 2.897-1.676 9.511 1.637 14.87 4.243 6.863 10.508 9.985 19.964 9.95 7.775-0.03 11.84-1.622 17.258-6.764 4.504-4.273 5.962-9.003 3.796-12.309-2.325-3.549-5.379-2.769-8.729 2.228-3.602 5.374-8.587 7.78-14.334 6.918-4.633-0.695-9.033-3.521-9.845-6.323-0.275-0.948-0.994-3.637-1.598-5.974-0.967-3.744-1.436-4.25-3.937-4.25-1.562 0-3.457 0.744-4.212 1.654M530.655 482.829c-2.007 2.218-2.146 8.073-0.295 12.453 4.736 11.207 20.361 16.175 32.194 10.235 5.619-2.821 9.446-7.735 9.446-12.129 0-6.649-4.377-7.074-9.425-0.915-4.507 5.501-9.497 7.368-14.914 5.58-4.527-1.494-8.383-6.009-9.252-10.832-1.137-6.318-4.36-8.143-7.754-4.392M479.035 511.934c-2.409 4.502-0.265 10.692 6.094 17.59 5.08 5.512 9.968 8.192 17.464 9.578 12.316 2.277 30.407-5.511 30.407-13.089 0-5.655-4.118-6.473-10.337-2.054-8.469 6.019-18.497 6.434-26.889 1.113-4.124-2.616-6.866-6.619-9.122-13.322-0.835-2.48-6.261-2.349-7.617 0.184M654.557 550.223c-1.973 2.816-2.004 7.161-0.063 8.772 0.822 0.683 4.985 1.67 9.25 2.194 16.895 2.077 45.843 7.02 55.043 9.399 24.335 6.292 44.692 14.628 49.406 20.229 6.23 7.404 13.807 6.502 13.807-1.643 0-13.862-45.354-30.715-105.242-39.108-18.748-2.627-20.259-2.617-22.201 0.1569999999999M337 558.526c-21.863 3.415-32.369 5.785-51.119 11.531-26.177 8.022-43.881 17.816-43.881 24.276 0 5.905 7.565 6.203 16.889 0.6640000000001 17.217-10.229 48.278-19.059 86.02-24.453 17.812-2.546 19.81-3.465 18.57-8.544-1.522-6.231-5.493-6.752-26.479-3.474"
    hyvector:nodetypes="7c25c7c10c26c6cs4c4c6cs3c10c2cs7c10c70c8c5c6c4c9c4c11c8c8c8c7c"
    fill="#f0b51b"
    />
</svg>